<mxfile host="app.diagrams.net" modified="2023-12-19T21:23:25.650Z" agent="Mozilla/5.0 (Windows NT 10.0; Win64; x64) AppleWebKit/537.36 (KHTML, like Gecko) Chrome/120.0.0.0 Safari/537.36 Edg/120.0.0.0" etag="sPUMR_qyvMZj2ShpsB9j" version="22.1.11" type="device">
  <diagram name="Side-1" id="Of4cBsXAWJ89yzBINzGi">
    <mxGraphModel dx="1216" dy="674" grid="1" gridSize="10" guides="1" tooltips="1" connect="1" arrows="1" fold="1" page="1" pageScale="1" pageWidth="827" pageHeight="1169" math="0" shadow="0">
      <root>
        <mxCell id="0" />
        <mxCell id="1" parent="0" />
        <mxCell id="HW-5u9f7S994316d8FzE-587" value="9.10: SaveChanges()" style="text;html=1;align=center;verticalAlign=middle;resizable=0;points=[];autosize=1;strokeColor=none;fillColor=none;" parent="1" vertex="1">
          <mxGeometry x="714.22" y="2871.5" width="140" height="30" as="geometry" />
        </mxCell>
        <mxCell id="HW-5u9f7S994316d8FzE-562" value="9.3: request : author" style="text;html=1;align=center;verticalAlign=middle;resizable=0;points=[];autosize=1;strokeColor=none;fillColor=none;" parent="1" vertex="1">
          <mxGeometry x="720.9" y="2695" width="130" height="30" as="geometry" />
        </mxCell>
        <mxCell id="HW-5u9f7S994316d8FzE-570" value="9.6: make entity instance" style="text;html=1;align=center;verticalAlign=middle;resizable=0;points=[];autosize=1;strokeColor=none;fillColor=none;labelBackgroundColor=default;" parent="1" vertex="1">
          <mxGeometry x="857.59" y="2765" width="160" height="30" as="geometry" />
        </mxCell>
        <mxCell id="HW-5u9f7S994316d8FzE-402" value="1.1: CreateAuthor()" style="text;whiteSpace=wrap;html=1;" parent="1" vertex="1">
          <mxGeometry x="474.69" y="60" width="130" height="40" as="geometry" />
        </mxCell>
        <mxCell id="HW-5u9f7S994316d8FzE-406" value="&lt;span style=&quot;color: rgb(0, 0, 0); font-family: Helvetica; font-size: 12px; font-style: normal; font-variant-ligatures: normal; font-variant-caps: normal; font-weight: 400; letter-spacing: normal; orphans: 2; text-align: left; text-indent: 0px; text-transform: none; widows: 2; word-spacing: 0px; -webkit-text-stroke-width: 0px; background-color: rgb(251, 251, 251); text-decoration-thickness: initial; text-decoration-style: initial; text-decoration-color: initial; float: none; display: inline !important;&quot;&gt;1.2: CreateAuthor()&lt;/span&gt;" style="text;whiteSpace=wrap;html=1;" parent="1" vertex="1">
          <mxGeometry x="593.37" y="62" width="140" height="40" as="geometry" />
        </mxCell>
        <mxCell id="HW-5u9f7S994316d8FzE-428" value="&lt;span style=&quot;color: rgb(0, 0, 0); font-family: Helvetica; font-size: 12px; font-style: normal; font-variant-ligatures: normal; font-variant-caps: normal; font-weight: 400; letter-spacing: normal; orphans: 2; text-align: center; text-indent: 0px; text-transform: none; widows: 2; word-spacing: 0px; -webkit-text-stroke-width: 0px; background-color: rgb(251, 251, 251); text-decoration-thickness: initial; text-decoration-style: initial; text-decoration-color: initial; float: none; display: inline !important;&quot;&gt;1.11: AddAsync(Cheep)&lt;/span&gt;" style="text;whiteSpace=wrap;html=1;" parent="1" vertex="1">
          <mxGeometry x="722.37" y="288" width="160" height="40" as="geometry" />
        </mxCell>
        <mxCell id="HW-5u9f7S994316d8FzE-424" value="&lt;span style=&quot;color: rgb(0, 0, 0); font-family: Helvetica; font-size: 12px; font-style: normal; font-variant-ligatures: normal; font-variant-caps: normal; font-weight: 400; letter-spacing: normal; orphans: 2; text-align: center; text-indent: 0px; text-transform: none; widows: 2; word-spacing: 0px; -webkit-text-stroke-width: 0px; background-color: rgb(255, 255, 255); text-decoration-thickness: initial; text-decoration-style: initial; text-decoration-color: initial; float: none; display: inline !important;&quot;&gt;1.9: create new Author&lt;/span&gt;" style="text;whiteSpace=wrap;html=1;" parent="1" vertex="1">
          <mxGeometry x="720.82" y="223.75" width="170" height="40" as="geometry" />
        </mxCell>
        <mxCell id="HW-5u9f7S994316d8FzE-273" value="&lt;span style=&quot;color: rgb(0, 0, 0); font-family: Helvetica; font-size: 12px; font-style: normal; font-variant-ligatures: normal; font-variant-caps: normal; font-weight: 400; letter-spacing: normal; orphans: 2; text-align: center; text-indent: 0px; text-transform: none; widows: 2; word-spacing: 0px; -webkit-text-stroke-width: 0px; background-color: rgb(251, 251, 251); text-decoration-thickness: initial; text-decoration-style: initial; text-decoration-color: initial; float: none; display: inline !important;&quot;&gt;5.19: Add Like&lt;/span&gt;" style="text;whiteSpace=wrap;html=1;" parent="1" vertex="1">
          <mxGeometry x="737.37" y="1533" width="160" height="40" as="geometry" />
        </mxCell>
        <mxCell id="HW-5u9f7S994316d8FzE-13" style="edgeStyle=orthogonalEdgeStyle;rounded=0;orthogonalLoop=1;jettySize=auto;html=1;dashed=1;endArrow=none;endFill=0;" parent="1" source="HW-5u9f7S994316d8FzE-270" target="HW-5u9f7S994316d8FzE-27" edge="1">
          <mxGeometry relative="1" as="geometry">
            <mxPoint x="270" y="450" as="targetPoint" />
          </mxGeometry>
        </mxCell>
        <mxCell id="HW-5u9f7S994316d8FzE-14" value="Client" style="rounded=0;whiteSpace=wrap;html=1;arcSize=40;fontColor=#000000;fillColor=#ffffc0;strokeColor=#ff0000;" parent="1" vertex="1">
          <mxGeometry x="224" y="10" width="70" height="30" as="geometry" />
        </mxCell>
        <mxCell id="HW-5u9f7S994316d8FzE-17" value="Webserver" style="rounded=0;whiteSpace=wrap;html=1;arcSize=40;fontColor=#000000;fillColor=#ffffc0;strokeColor=#ff0000;" parent="1" vertex="1">
          <mxGeometry x="437.5" y="10" width="70" height="30" as="geometry" />
        </mxCell>
        <mxCell id="HW-5u9f7S994316d8FzE-18" value="Webserver" style="rounded=0;whiteSpace=wrap;html=1;arcSize=40;fontColor=#000000;fillColor=#ffffc0;strokeColor=#ff0000;" parent="1" vertex="1">
          <mxGeometry x="437.5" y="2989" width="70" height="30" as="geometry" />
        </mxCell>
        <mxCell id="HW-5u9f7S994316d8FzE-23" value="2: Sign-in/Sign-up" style="text;html=1;strokeColor=none;fillColor=none;align=center;verticalAlign=middle;whiteSpace=wrap;rounded=0;" parent="1" vertex="1">
          <mxGeometry x="307.5" y="726" width="122.5" height="30" as="geometry" />
        </mxCell>
        <mxCell id="HW-5u9f7S994316d8FzE-27" value="Client" style="rounded=0;whiteSpace=wrap;html=1;arcSize=40;fontColor=#000000;fillColor=#ffffc0;strokeColor=#ff0000;" parent="1" vertex="1">
          <mxGeometry x="224" y="2989" width="70" height="30" as="geometry" />
        </mxCell>
        <mxCell id="HW-5u9f7S994316d8FzE-28" style="edgeStyle=orthogonalEdgeStyle;rounded=0;orthogonalLoop=1;jettySize=auto;html=1;entryX=0.5;entryY=0;entryDx=0;entryDy=0;dashed=1;endArrow=none;endFill=0;" parent="1" source="HW-5u9f7S994316d8FzE-124" target="HW-5u9f7S994316d8FzE-32" edge="1">
          <mxGeometry relative="1" as="geometry" />
        </mxCell>
        <mxCell id="HW-5u9f7S994316d8FzE-29" value="ICheep/Author&lt;br&gt;Service" style="rounded=0;whiteSpace=wrap;html=1;arcSize=40;fontColor=#000000;fillColor=#ffffc0;strokeColor=#ff0000;" parent="1" vertex="1">
          <mxGeometry x="535" width="92.5" height="40" as="geometry" />
        </mxCell>
        <mxCell id="HW-5u9f7S994316d8FzE-30" value="ICheep/Author&lt;br style=&quot;border-color: var(--border-color);&quot;&gt;Service" style="rounded=0;whiteSpace=wrap;html=1;arcSize=40;fontColor=#000000;fillColor=#ffffc0;strokeColor=#ff0000;" parent="1" vertex="1">
          <mxGeometry x="530" y="2988" width="102.5" height="41" as="geometry" />
        </mxCell>
        <mxCell id="HW-5u9f7S994316d8FzE-31" style="edgeStyle=orthogonalEdgeStyle;rounded=0;orthogonalLoop=1;jettySize=auto;html=1;entryX=0.5;entryY=0;entryDx=0;entryDy=0;endArrow=none;endFill=0;dashed=1;" parent="1" source="HW-5u9f7S994316d8FzE-32" target="HW-5u9f7S994316d8FzE-30" edge="1">
          <mxGeometry relative="1" as="geometry" />
        </mxCell>
        <mxCell id="HW-5u9f7S994316d8FzE-32" value="" style="rounded=0;whiteSpace=wrap;html=1;" parent="1" vertex="1">
          <mxGeometry x="573.75" y="899" width="15" height="230" as="geometry" />
        </mxCell>
        <mxCell id="HW-5u9f7S994316d8FzE-33" value="" style="endArrow=classic;html=1;rounded=0;" parent="1" edge="1">
          <mxGeometry width="50" height="50" relative="1" as="geometry">
            <mxPoint x="270" y="749" as="sourcePoint" />
            <mxPoint x="460" y="749" as="targetPoint" />
            <Array as="points" />
          </mxGeometry>
        </mxCell>
        <mxCell id="HW-5u9f7S994316d8FzE-35" value="4: POST cheep" style="text;html=1;strokeColor=none;fillColor=none;align=center;verticalAlign=middle;whiteSpace=wrap;rounded=0;" parent="1" vertex="1">
          <mxGeometry x="312" y="859" width="100" height="30" as="geometry" />
        </mxCell>
        <mxCell id="HW-5u9f7S994316d8FzE-40" value="" style="endArrow=classic;html=1;rounded=0;endSize=6;strokeWidth=1;" parent="1" edge="1">
          <mxGeometry width="50" height="50" relative="1" as="geometry">
            <mxPoint x="603.19" y="912" as="sourcePoint" />
            <mxPoint x="699.44" y="911" as="targetPoint" />
            <Array as="points" />
          </mxGeometry>
        </mxCell>
        <mxCell id="HW-5u9f7S994316d8FzE-41" style="edgeStyle=orthogonalEdgeStyle;rounded=0;orthogonalLoop=1;jettySize=auto;html=1;dashed=1;endArrow=none;endFill=0;" parent="1" source="HW-5u9f7S994316d8FzE-44" target="HW-5u9f7S994316d8FzE-43" edge="1">
          <mxGeometry relative="1" as="geometry" />
        </mxCell>
        <mxCell id="HW-5u9f7S994316d8FzE-42" value="ICheep/Author&lt;br&gt;Repository" style="rounded=0;whiteSpace=wrap;html=1;arcSize=40;fontColor=#000000;fillColor=#ffffc0;strokeColor=#ff0000;" parent="1" vertex="1">
          <mxGeometry x="656.25" width="110" height="40" as="geometry" />
        </mxCell>
        <mxCell id="HW-5u9f7S994316d8FzE-43" value="ICheep/Author&lt;br style=&quot;border-color: var(--border-color);&quot;&gt;Repository" style="rounded=0;whiteSpace=wrap;html=1;arcSize=40;fontColor=#000000;fillColor=#ffffc0;strokeColor=#ff0000;" parent="1" vertex="1">
          <mxGeometry x="661.25" y="2988" width="100" height="41" as="geometry" />
        </mxCell>
        <mxCell id="HW-5u9f7S994316d8FzE-45" value="" style="edgeStyle=orthogonalEdgeStyle;rounded=0;orthogonalLoop=1;jettySize=auto;html=1;entryX=0.5;entryY=0;entryDx=0;entryDy=0;dashed=1;endArrow=none;endFill=0;" parent="1" source="HW-5u9f7S994316d8FzE-129" target="HW-5u9f7S994316d8FzE-44" edge="1">
          <mxGeometry relative="1" as="geometry">
            <mxPoint x="711.25" y="835" as="sourcePoint" />
            <mxPoint x="711.25" y="1105" as="targetPoint" />
          </mxGeometry>
        </mxCell>
        <mxCell id="HW-5u9f7S994316d8FzE-44" value="" style="rounded=0;whiteSpace=wrap;html=1;" parent="1" vertex="1">
          <mxGeometry x="703.75" y="909" width="15" height="210" as="geometry" />
        </mxCell>
        <mxCell id="HW-5u9f7S994316d8FzE-47" value="4.2: AddCheep()" style="text;html=1;align=center;verticalAlign=middle;resizable=0;points=[];autosize=1;strokeColor=none;fillColor=none;" parent="1" vertex="1">
          <mxGeometry x="595.69" y="870" width="110" height="30" as="geometry" />
        </mxCell>
        <mxCell id="HW-5u9f7S994316d8FzE-49" value="" style="html=1;align=left;spacingLeft=2;endArrow=block;rounded=0;edgeStyle=orthogonalEdgeStyle;curved=0;rounded=0;" parent="1" edge="1">
          <mxGeometry x="0.0118" relative="1" as="geometry">
            <mxPoint x="723.62" y="980.5" as="sourcePoint" />
            <Array as="points">
              <mxPoint x="753.62" y="1010.5" />
            </Array>
            <mxPoint x="728.62" y="1010.5" as="targetPoint" />
            <mxPoint as="offset" />
          </mxGeometry>
        </mxCell>
        <mxCell id="HW-5u9f7S994316d8FzE-52" value="" style="html=1;align=left;spacingLeft=2;endArrow=block;rounded=0;edgeStyle=orthogonalEdgeStyle;curved=0;rounded=0;" parent="1" edge="1">
          <mxGeometry x="0.0118" relative="1" as="geometry">
            <mxPoint x="721.12" y="1030.5" as="sourcePoint" />
            <Array as="points">
              <mxPoint x="751.12" y="1060.5" />
            </Array>
            <mxPoint x="726.12" y="1060.5" as="targetPoint" />
            <mxPoint as="offset" />
          </mxGeometry>
        </mxCell>
        <mxCell id="HW-5u9f7S994316d8FzE-53" value="&lt;span style=&quot;color: rgb(0, 0, 0); font-family: Helvetica; font-size: 12px; font-style: normal; font-variant-ligatures: normal; font-variant-caps: normal; font-weight: 400; letter-spacing: normal; orphans: 2; text-align: center; text-indent: 0px; text-transform: none; widows: 2; word-spacing: 0px; -webkit-text-stroke-width: 0px; background-color: rgb(251, 251, 251); text-decoration-thickness: initial; text-decoration-style: initial; text-decoration-color: initial; float: none; display: inline !important;&quot;&gt;4.9: Validate Cheep&lt;/span&gt;" style="text;whiteSpace=wrap;html=1;" parent="1" vertex="1">
          <mxGeometry x="724" y="1033.5" width="130" height="40" as="geometry" />
        </mxCell>
        <mxCell id="HW-5u9f7S994316d8FzE-55" style="edgeStyle=orthogonalEdgeStyle;rounded=0;orthogonalLoop=1;jettySize=auto;html=1;dashed=1;endArrow=none;endFill=0;" parent="1" source="HW-5u9f7S994316d8FzE-157" target="HW-5u9f7S994316d8FzE-80" edge="1">
          <mxGeometry relative="1" as="geometry">
            <mxPoint x="968.75" y="748" as="targetPoint" />
          </mxGeometry>
        </mxCell>
        <mxCell id="HW-5u9f7S994316d8FzE-56" value="SQL server&lt;br&gt;&amp;lt;&amp;lt;database&amp;gt;&amp;gt;" style="rounded=0;whiteSpace=wrap;html=1;arcSize=40;fontColor=#000000;fillColor=#ffffc0;strokeColor=#ff0000;" parent="1" vertex="1">
          <mxGeometry x="951.07" y="5" width="89.75" height="30" as="geometry" />
        </mxCell>
        <mxCell id="HW-5u9f7S994316d8FzE-59" value="" style="edgeStyle=orthogonalEdgeStyle;rounded=0;orthogonalLoop=1;jettySize=auto;html=1;entryX=0.5;entryY=0;entryDx=0;entryDy=0;dashed=1;endArrow=none;endFill=0;" parent="1" source="HW-5u9f7S994316d8FzE-61" target="HW-5u9f7S994316d8FzE-58" edge="1">
          <mxGeometry relative="1" as="geometry">
            <mxPoint x="473" y="606" as="sourcePoint" />
            <mxPoint x="473" y="726" as="targetPoint" />
          </mxGeometry>
        </mxCell>
        <mxCell id="HW-5u9f7S994316d8FzE-82" style="edgeStyle=orthogonalEdgeStyle;rounded=0;orthogonalLoop=1;jettySize=auto;html=1;entryX=0.5;entryY=0;entryDx=0;entryDy=0;endArrow=none;endFill=0;dashed=1;" parent="1" source="HW-5u9f7S994316d8FzE-83" target="HW-5u9f7S994316d8FzE-18" edge="1">
          <mxGeometry relative="1" as="geometry" />
        </mxCell>
        <mxCell id="HW-5u9f7S994316d8FzE-58" value="" style="rounded=0;whiteSpace=wrap;html=1;" parent="1" vertex="1">
          <mxGeometry x="465" y="739" width="15" height="60" as="geometry" />
        </mxCell>
        <mxCell id="HW-5u9f7S994316d8FzE-62" value="" style="edgeStyle=orthogonalEdgeStyle;rounded=0;orthogonalLoop=1;jettySize=auto;html=1;entryX=0.5;entryY=0;entryDx=0;entryDy=0;dashed=1;endArrow=none;endFill=0;" parent="1" source="HW-5u9f7S994316d8FzE-17" target="HW-5u9f7S994316d8FzE-61" edge="1">
          <mxGeometry relative="1" as="geometry">
            <mxPoint x="473" y="110" as="sourcePoint" />
            <mxPoint x="473" y="270" as="targetPoint" />
          </mxGeometry>
        </mxCell>
        <mxCell id="HW-5u9f7S994316d8FzE-61" value="" style="rounded=0;whiteSpace=wrap;html=1;" parent="1" vertex="1">
          <mxGeometry x="465" y="436" width="15" height="230" as="geometry" />
        </mxCell>
        <mxCell id="HW-5u9f7S994316d8FzE-63" value="2: request : /" style="text;html=1;align=center;verticalAlign=middle;resizable=0;points=[];autosize=1;strokeColor=none;fillColor=none;" parent="1" vertex="1">
          <mxGeometry x="317" y="406" width="90" height="30" as="geometry" />
        </mxCell>
        <mxCell id="HW-5u9f7S994316d8FzE-64" value="2.19: respone : Public.cshtml" style="text;html=1;align=center;verticalAlign=middle;resizable=0;points=[];autosize=1;strokeColor=none;fillColor=none;" parent="1" vertex="1">
          <mxGeometry x="278.75" y="628" width="180" height="30" as="geometry" />
        </mxCell>
        <mxCell id="HW-5u9f7S994316d8FzE-65" value="" style="endArrow=classic;html=1;rounded=0;" parent="1" edge="1">
          <mxGeometry width="50" height="50" relative="1" as="geometry">
            <mxPoint x="271.5" y="436" as="sourcePoint" />
            <mxPoint x="461.5" y="436" as="targetPoint" />
            <Array as="points" />
          </mxGeometry>
        </mxCell>
        <mxCell id="HW-5u9f7S994316d8FzE-66" value="" style="endArrow=classic;html=1;rounded=0;" parent="1" edge="1">
          <mxGeometry width="50" height="50" relative="1" as="geometry">
            <mxPoint x="455.75" y="658" as="sourcePoint" />
            <mxPoint x="265.75" y="658" as="targetPoint" />
            <Array as="points" />
          </mxGeometry>
        </mxCell>
        <mxCell id="HW-5u9f7S994316d8FzE-67" style="edgeStyle=orthogonalEdgeStyle;rounded=0;orthogonalLoop=1;jettySize=auto;html=1;entryX=0.5;entryY=0;entryDx=0;entryDy=0;dashed=1;endArrow=none;endFill=0;" parent="1" source="HW-5u9f7S994316d8FzE-68" target="HW-5u9f7S994316d8FzE-71" edge="1">
          <mxGeometry relative="1" as="geometry" />
        </mxCell>
        <mxCell id="HW-5u9f7S994316d8FzE-68" value="Azure AD B2C Authentication" style="rounded=0;whiteSpace=wrap;html=1;arcSize=40;fontColor=#000000;fillColor=#ffffc0;strokeColor=#ff0000;" parent="1" vertex="1">
          <mxGeometry x="1080" y="11" width="87.5" height="30" as="geometry" />
        </mxCell>
        <mxCell id="HW-5u9f7S994316d8FzE-69" value="Azure AD B2C Authentication" style="rounded=0;whiteSpace=wrap;html=1;arcSize=40;fontColor=#000000;fillColor=#ffffc0;strokeColor=#ff0000;" parent="1" vertex="1">
          <mxGeometry x="1080" y="2989" width="87.5" height="30" as="geometry" />
        </mxCell>
        <mxCell id="HW-5u9f7S994316d8FzE-70" style="edgeStyle=orthogonalEdgeStyle;rounded=0;orthogonalLoop=1;jettySize=auto;html=1;entryX=0.5;entryY=0;entryDx=0;entryDy=0;endArrow=none;endFill=0;dashed=1;" parent="1" source="HW-5u9f7S994316d8FzE-71" target="HW-5u9f7S994316d8FzE-69" edge="1">
          <mxGeometry relative="1" as="geometry" />
        </mxCell>
        <mxCell id="HW-5u9f7S994316d8FzE-71" value="" style="rounded=0;whiteSpace=wrap;html=1;" parent="1" vertex="1">
          <mxGeometry x="1116.25" y="750" width="15" height="40" as="geometry" />
        </mxCell>
        <mxCell id="HW-5u9f7S994316d8FzE-73" value="" style="endArrow=classic;html=1;rounded=0;" parent="1" edge="1">
          <mxGeometry width="50" height="50" relative="1" as="geometry">
            <mxPoint x="486.25" y="756" as="sourcePoint" />
            <mxPoint x="1110" y="756" as="targetPoint" />
            <Array as="points" />
          </mxGeometry>
        </mxCell>
        <mxCell id="HW-5u9f7S994316d8FzE-75" value="2.1: request : user verification" style="text;html=1;align=center;verticalAlign=middle;resizable=0;points=[];autosize=1;strokeColor=none;fillColor=none;" parent="1" vertex="1">
          <mxGeometry x="500" y="729" width="180" height="30" as="geometry" />
        </mxCell>
        <mxCell id="HW-5u9f7S994316d8FzE-76" value="" style="endArrow=classic;html=1;rounded=0;" parent="1" edge="1">
          <mxGeometry width="50" height="50" relative="1" as="geometry">
            <mxPoint x="1100" y="781" as="sourcePoint" />
            <mxPoint x="484" y="781" as="targetPoint" />
            <Array as="points" />
          </mxGeometry>
        </mxCell>
        <mxCell id="HW-5u9f7S994316d8FzE-77" value="2.2: respone : verify user (sucess/failure)" style="text;html=1;align=center;verticalAlign=middle;resizable=0;points=[];autosize=1;strokeColor=none;fillColor=none;" parent="1" vertex="1">
          <mxGeometry x="490" y="756" width="240" height="30" as="geometry" />
        </mxCell>
        <mxCell id="HW-5u9f7S994316d8FzE-78" value="" style="endArrow=classic;html=1;rounded=0;entryX=0.061;entryY=1.049;entryDx=0;entryDy=0;entryPerimeter=0;" parent="1" target="HW-5u9f7S994316d8FzE-79" edge="1">
          <mxGeometry width="50" height="50" relative="1" as="geometry">
            <mxPoint x="457" y="795" as="sourcePoint" />
            <mxPoint x="267" y="795" as="targetPoint" />
            <Array as="points" />
          </mxGeometry>
        </mxCell>
        <mxCell id="HW-5u9f7S994316d8FzE-79" value="2.3 respone : Public.cshtml &lt;br&gt;" style="text;html=1;align=center;verticalAlign=middle;resizable=0;points=[];autosize=1;strokeColor=none;fillColor=none;" parent="1" vertex="1">
          <mxGeometry x="285.75" y="764" width="170" height="30" as="geometry" />
        </mxCell>
        <mxCell id="HW-5u9f7S994316d8FzE-80" value="SQL server&lt;br&gt;&amp;lt;&amp;lt;database&amp;gt;&amp;gt;" style="rounded=0;whiteSpace=wrap;html=1;arcSize=40;fontColor=#000000;fillColor=#ffffc0;strokeColor=#ff0000;" parent="1" vertex="1">
          <mxGeometry x="949.5" y="2988" width="90.25" height="30" as="geometry" />
        </mxCell>
        <mxCell id="HW-5u9f7S994316d8FzE-84" value="" style="edgeStyle=orthogonalEdgeStyle;rounded=0;orthogonalLoop=1;jettySize=auto;html=1;entryX=0.5;entryY=0;entryDx=0;entryDy=0;endArrow=none;endFill=0;dashed=1;" parent="1" source="HW-5u9f7S994316d8FzE-58" target="HW-5u9f7S994316d8FzE-83" edge="1">
          <mxGeometry relative="1" as="geometry">
            <mxPoint x="473" y="799" as="sourcePoint" />
            <mxPoint x="473" y="1218" as="targetPoint" />
          </mxGeometry>
        </mxCell>
        <mxCell id="HW-5u9f7S994316d8FzE-83" value="" style="rounded=0;whiteSpace=wrap;html=1;" parent="1" vertex="1">
          <mxGeometry x="465" y="880" width="15" height="259" as="geometry" />
        </mxCell>
        <mxCell id="HW-5u9f7S994316d8FzE-85" value="" style="endArrow=classic;html=1;rounded=0;" parent="1" edge="1">
          <mxGeometry width="50" height="50" relative="1" as="geometry">
            <mxPoint x="270" y="889" as="sourcePoint" />
            <mxPoint x="460" y="889" as="targetPoint" />
            <Array as="points" />
          </mxGeometry>
        </mxCell>
        <mxCell id="HW-5u9f7S994316d8FzE-87" value="" style="endArrow=classic;html=1;rounded=0;endSize=6;strokeWidth=1;" parent="1" edge="1">
          <mxGeometry width="50" height="50" relative="1" as="geometry">
            <mxPoint x="486.25" y="909" as="sourcePoint" />
            <mxPoint x="569.75" y="909.25" as="targetPoint" />
            <Array as="points" />
          </mxGeometry>
        </mxCell>
        <mxCell id="HW-5u9f7S994316d8FzE-88" value="4.1 AddCheep()" style="text;html=1;align=center;verticalAlign=middle;resizable=0;points=[];autosize=1;strokeColor=none;fillColor=none;" parent="1" vertex="1">
          <mxGeometry x="473" y="870" width="110" height="30" as="geometry" />
        </mxCell>
        <mxCell id="HW-5u9f7S994316d8FzE-90" value="4.10: AddAsync(Cheep)" style="text;html=1;align=center;verticalAlign=middle;resizable=0;points=[];autosize=1;strokeColor=none;fillColor=none;" parent="1" vertex="1">
          <mxGeometry x="711.37" y="1063.5" width="150" height="30" as="geometry" />
        </mxCell>
        <mxCell id="HW-5u9f7S994316d8FzE-97" value="" style="endArrow=classic;html=1;rounded=0;" parent="1" edge="1">
          <mxGeometry width="50" height="50" relative="1" as="geometry">
            <mxPoint x="692.75" y="1117.8200000000002" as="sourcePoint" />
            <mxPoint x="592.75" y="1117.8200000000002" as="targetPoint" />
          </mxGeometry>
        </mxCell>
        <mxCell id="HW-5u9f7S994316d8FzE-98" value="4.13: response : &lt;br&gt;ValidationResult" style="text;html=1;align=center;verticalAlign=middle;resizable=0;points=[];autosize=1;strokeColor=none;fillColor=none;" parent="1" vertex="1">
          <mxGeometry x="593.75" y="1078" width="110" height="40" as="geometry" />
        </mxCell>
        <mxCell id="HW-5u9f7S994316d8FzE-99" value="4.14: response : &lt;br&gt;ValidationResult" style="text;html=1;align=center;verticalAlign=middle;resizable=0;points=[];autosize=1;strokeColor=none;fillColor=none;" parent="1" vertex="1">
          <mxGeometry x="474.69" y="1089" width="110" height="40" as="geometry" />
        </mxCell>
        <mxCell id="HW-5u9f7S994316d8FzE-100" value="" style="endArrow=classic;html=1;rounded=0;" parent="1" edge="1">
          <mxGeometry width="50" height="50" relative="1" as="geometry">
            <mxPoint x="567.19" y="1129" as="sourcePoint" />
            <mxPoint x="484.19" y="1129" as="targetPoint" />
          </mxGeometry>
        </mxCell>
        <mxCell id="HW-5u9f7S994316d8FzE-101" value="" style="endArrow=classic;html=1;rounded=0;" parent="1" edge="1">
          <mxGeometry width="50" height="50" relative="1" as="geometry">
            <mxPoint x="457.75" y="1139" as="sourcePoint" />
            <mxPoint x="267.75" y="1139" as="targetPoint" />
            <Array as="points" />
          </mxGeometry>
        </mxCell>
        <mxCell id="HW-5u9f7S994316d8FzE-102" value="4.15: response : Public.cshtml" style="text;html=1;align=center;verticalAlign=middle;resizable=0;points=[];autosize=1;strokeColor=none;fillColor=none;" parent="1" vertex="1">
          <mxGeometry x="275.75" y="1110" width="180" height="30" as="geometry" />
        </mxCell>
        <mxCell id="HW-5u9f7S994316d8FzE-106" style="edgeStyle=orthogonalEdgeStyle;rounded=0;orthogonalLoop=1;jettySize=auto;html=1;dashed=1;endArrow=none;endFill=0;" parent="1" source="HW-5u9f7S994316d8FzE-604" target="HW-5u9f7S994316d8FzE-108" edge="1">
          <mxGeometry relative="1" as="geometry">
            <mxPoint x="853.75" y="749" as="targetPoint" />
          </mxGeometry>
        </mxCell>
        <mxCell id="HW-5u9f7S994316d8FzE-122" style="edgeStyle=orthogonalEdgeStyle;rounded=0;orthogonalLoop=1;jettySize=auto;html=1;entryX=0.5;entryY=0;entryDx=0;entryDy=0;dashed=1;endArrow=none;endFill=0;" parent="1" source="HW-5u9f7S994316d8FzE-275" target="HW-5u9f7S994316d8FzE-116" edge="1">
          <mxGeometry relative="1" as="geometry" />
        </mxCell>
        <mxCell id="HW-5u9f7S994316d8FzE-107" value="ChirpContext" style="rounded=0;whiteSpace=wrap;html=1;arcSize=40;fontColor=#000000;fillColor=#ffffc0;strokeColor=#ff0000;" parent="1" vertex="1">
          <mxGeometry x="815" y="11" width="89.75" height="30" as="geometry" />
        </mxCell>
        <mxCell id="HW-5u9f7S994316d8FzE-108" value="ChirpContext" style="rounded=0;whiteSpace=wrap;html=1;arcSize=40;fontColor=#000000;fillColor=#ffffc0;strokeColor=#ff0000;" parent="1" vertex="1">
          <mxGeometry x="817.7" y="2989" width="90.25" height="30" as="geometry" />
        </mxCell>
        <mxCell id="HW-5u9f7S994316d8FzE-109" value="" style="endArrow=classic;html=1;rounded=0;" parent="1" edge="1">
          <mxGeometry width="50" height="50" relative="1" as="geometry">
            <mxPoint x="733.62" y="1090.5" as="sourcePoint" />
            <mxPoint x="852.37" y="1090.5" as="targetPoint" />
          </mxGeometry>
        </mxCell>
        <mxCell id="HW-5u9f7S994316d8FzE-113" value="4.11 SaveChanges()" style="text;html=1;align=center;verticalAlign=middle;resizable=0;points=[];autosize=1;strokeColor=none;fillColor=none;" parent="1" vertex="1">
          <mxGeometry x="719" y="1093.5" width="130" height="30" as="geometry" />
        </mxCell>
        <mxCell id="HW-5u9f7S994316d8FzE-116" value="" style="rounded=0;whiteSpace=wrap;html=1;" parent="1" vertex="1">
          <mxGeometry x="854" y="1110" width="15" height="19" as="geometry" />
        </mxCell>
        <mxCell id="HW-5u9f7S994316d8FzE-118" value="" style="endArrow=classic;html=1;rounded=0;" parent="1" edge="1">
          <mxGeometry width="50" height="50" relative="1" as="geometry">
            <mxPoint x="725.63" y="1119" as="sourcePoint" />
            <mxPoint x="844.38" y="1119" as="targetPoint" />
          </mxGeometry>
        </mxCell>
        <mxCell id="HW-5u9f7S994316d8FzE-119" value="" style="endArrow=classic;html=1;rounded=0;" parent="1" edge="1">
          <mxGeometry width="50" height="50" relative="1" as="geometry">
            <mxPoint x="877" y="1119" as="sourcePoint" />
            <mxPoint x="983" y="1119.1799999999998" as="targetPoint" />
          </mxGeometry>
        </mxCell>
        <mxCell id="HW-5u9f7S994316d8FzE-121" value="4.12 SaveChanges()" style="text;html=1;align=center;verticalAlign=middle;resizable=0;points=[];autosize=1;strokeColor=none;fillColor=none;" parent="1" vertex="1">
          <mxGeometry x="865" y="1088" width="130" height="30" as="geometry" />
        </mxCell>
        <mxCell id="HW-5u9f7S994316d8FzE-123" value="" style="endArrow=classic;html=1;rounded=0;" parent="1" edge="1">
          <mxGeometry width="50" height="50" relative="1" as="geometry">
            <mxPoint x="490" y="446" as="sourcePoint" />
            <mxPoint x="570" y="446" as="targetPoint" />
          </mxGeometry>
        </mxCell>
        <mxCell id="HW-5u9f7S994316d8FzE-125" value="" style="edgeStyle=orthogonalEdgeStyle;rounded=0;orthogonalLoop=1;jettySize=auto;html=1;entryX=0.5;entryY=0;entryDx=0;entryDy=0;dashed=1;endArrow=none;endFill=0;" parent="1" source="HW-5u9f7S994316d8FzE-400" target="HW-5u9f7S994316d8FzE-124" edge="1">
          <mxGeometry relative="1" as="geometry">
            <mxPoint x="581" y="40" as="sourcePoint" />
            <mxPoint x="581" y="497" as="targetPoint" />
          </mxGeometry>
        </mxCell>
        <mxCell id="HW-5u9f7S994316d8FzE-124" value="" style="rounded=0;whiteSpace=wrap;html=1;" parent="1" vertex="1">
          <mxGeometry x="573.75" y="436" width="15" height="100" as="geometry" />
        </mxCell>
        <mxCell id="HW-5u9f7S994316d8FzE-126" value="2.1: GetCheeps()" style="text;html=1;align=center;verticalAlign=middle;resizable=0;points=[];autosize=1;strokeColor=none;fillColor=none;" parent="1" vertex="1">
          <mxGeometry x="464.69" y="411" width="120" height="30" as="geometry" />
        </mxCell>
        <mxCell id="HW-5u9f7S994316d8FzE-127" value="2.2: GetCheeps()" style="text;html=1;align=center;verticalAlign=middle;resizable=0;points=[];autosize=1;strokeColor=none;fillColor=none;" parent="1" vertex="1">
          <mxGeometry x="583.75" y="416" width="120" height="30" as="geometry" />
        </mxCell>
        <mxCell id="HW-5u9f7S994316d8FzE-128" value="" style="endArrow=classic;html=1;rounded=0;" parent="1" edge="1">
          <mxGeometry width="50" height="50" relative="1" as="geometry">
            <mxPoint x="598.75" y="446" as="sourcePoint" />
            <mxPoint x="691" y="446" as="targetPoint" />
          </mxGeometry>
        </mxCell>
        <mxCell id="HW-5u9f7S994316d8FzE-130" value="" style="edgeStyle=orthogonalEdgeStyle;rounded=0;orthogonalLoop=1;jettySize=auto;html=1;entryX=0.5;entryY=0;entryDx=0;entryDy=0;dashed=1;endArrow=none;endFill=0;" parent="1" source="HW-5u9f7S994316d8FzE-403" target="HW-5u9f7S994316d8FzE-129" edge="1">
          <mxGeometry relative="1" as="geometry">
            <mxPoint x="711" y="40" as="sourcePoint" />
            <mxPoint x="711" y="509" as="targetPoint" />
          </mxGeometry>
        </mxCell>
        <mxCell id="HW-5u9f7S994316d8FzE-129" value="" style="rounded=0;whiteSpace=wrap;html=1;" parent="1" vertex="1">
          <mxGeometry x="704" y="441" width="15" height="95" as="geometry" />
        </mxCell>
        <mxCell id="HW-5u9f7S994316d8FzE-132" value="2.3: request : cheeps" style="text;html=1;align=center;verticalAlign=middle;resizable=0;points=[];autosize=1;strokeColor=none;fillColor=none;" parent="1" vertex="1">
          <mxGeometry x="715" y="416" width="140" height="30" as="geometry" />
        </mxCell>
        <mxCell id="HW-5u9f7S994316d8FzE-131" value="" style="endArrow=classic;html=1;rounded=0;" parent="1" edge="1">
          <mxGeometry width="50" height="50" relative="1" as="geometry">
            <mxPoint x="732.37" y="446" as="sourcePoint" />
            <mxPoint x="837.62" y="446" as="targetPoint" />
          </mxGeometry>
        </mxCell>
        <mxCell id="HW-5u9f7S994316d8FzE-134" value="" style="edgeStyle=orthogonalEdgeStyle;rounded=0;orthogonalLoop=1;jettySize=auto;html=1;entryX=0.5;entryY=0;entryDx=0;entryDy=0;dashed=1;endArrow=none;endFill=0;" parent="1" source="HW-5u9f7S994316d8FzE-433" target="HW-5u9f7S994316d8FzE-133" edge="1">
          <mxGeometry relative="1" as="geometry">
            <mxPoint x="860" y="40" as="sourcePoint" />
            <mxPoint x="862" y="651" as="targetPoint" />
          </mxGeometry>
        </mxCell>
        <mxCell id="HW-5u9f7S994316d8FzE-133" value="" style="rounded=0;whiteSpace=wrap;html=1;" parent="1" vertex="1">
          <mxGeometry x="852.37" y="441" width="15" height="95" as="geometry" />
        </mxCell>
        <mxCell id="HW-5u9f7S994316d8FzE-136" value="" style="endArrow=classic;html=1;rounded=0;" parent="1" edge="1">
          <mxGeometry width="50" height="50" relative="1" as="geometry">
            <mxPoint x="883.87" y="446" as="sourcePoint" />
            <mxPoint x="976.12" y="446" as="targetPoint" />
          </mxGeometry>
        </mxCell>
        <mxCell id="HW-5u9f7S994316d8FzE-138" value="" style="edgeStyle=orthogonalEdgeStyle;rounded=0;orthogonalLoop=1;jettySize=auto;html=1;dashed=1;endArrow=none;endFill=0;" parent="1" source="HW-5u9f7S994316d8FzE-436" target="HW-5u9f7S994316d8FzE-137" edge="1">
          <mxGeometry relative="1" as="geometry">
            <mxPoint x="985" y="40" as="sourcePoint" />
            <mxPoint x="985" y="1359" as="targetPoint" />
          </mxGeometry>
        </mxCell>
        <mxCell id="HW-5u9f7S994316d8FzE-137" value="" style="rounded=0;whiteSpace=wrap;html=1;" parent="1" vertex="1">
          <mxGeometry x="987.37" y="436" width="15" height="50" as="geometry" />
        </mxCell>
        <mxCell id="HW-5u9f7S994316d8FzE-141" value="2.4: request : JSON" style="text;html=1;align=center;verticalAlign=middle;resizable=0;points=[];autosize=1;strokeColor=none;fillColor=none;" parent="1" vertex="1">
          <mxGeometry x="865" y="416" width="130" height="30" as="geometry" />
        </mxCell>
        <mxCell id="HW-5u9f7S994316d8FzE-142" value="" style="endArrow=classic;html=1;rounded=0;" parent="1" edge="1">
          <mxGeometry width="50" height="50" relative="1" as="geometry">
            <mxPoint x="972.49" y="472.25" as="sourcePoint" />
            <mxPoint x="880.24" y="472.25" as="targetPoint" />
          </mxGeometry>
        </mxCell>
        <mxCell id="HW-5u9f7S994316d8FzE-143" value="2.5: respone: JSON" style="text;html=1;align=center;verticalAlign=middle;resizable=0;points=[];autosize=1;strokeColor=none;fillColor=none;" parent="1" vertex="1">
          <mxGeometry x="867.37" y="446" width="130" height="30" as="geometry" />
        </mxCell>
        <mxCell id="HW-5u9f7S994316d8FzE-144" value="" style="endArrow=classic;html=1;rounded=0;" parent="1" edge="1">
          <mxGeometry width="50" height="50" relative="1" as="geometry">
            <mxPoint x="840" y="526" as="sourcePoint" />
            <mxPoint x="730" y="526.41" as="targetPoint" />
          </mxGeometry>
        </mxCell>
        <mxCell id="HW-5u9f7S994316d8FzE-145" value="2.7: response : cheeps" style="text;html=1;align=center;verticalAlign=middle;resizable=0;points=[];autosize=1;strokeColor=none;fillColor=none;" parent="1" vertex="1">
          <mxGeometry x="716" y="500.25" width="140" height="30" as="geometry" />
        </mxCell>
        <mxCell id="HW-5u9f7S994316d8FzE-148" value="" style="html=1;align=left;spacingLeft=2;endArrow=block;rounded=0;edgeStyle=orthogonalEdgeStyle;curved=0;rounded=0;" parent="1" edge="1">
          <mxGeometry relative="1" as="geometry">
            <mxPoint x="869" y="495.5" as="sourcePoint" />
            <Array as="points">
              <mxPoint x="899" y="525.5" />
            </Array>
            <mxPoint x="874" y="525.5" as="targetPoint" />
          </mxGeometry>
        </mxCell>
        <mxCell id="HW-5u9f7S994316d8FzE-153" value="" style="endArrow=classic;html=1;rounded=0;" parent="1" edge="1">
          <mxGeometry width="50" height="50" relative="1" as="geometry">
            <mxPoint x="691" y="529.25" as="sourcePoint" />
            <mxPoint x="598.75" y="529.25" as="targetPoint" />
          </mxGeometry>
        </mxCell>
        <mxCell id="HW-5u9f7S994316d8FzE-154" value="" style="endArrow=classic;html=1;rounded=0;" parent="1" edge="1">
          <mxGeometry width="50" height="50" relative="1" as="geometry">
            <mxPoint x="568.5600000000001" y="533" as="sourcePoint" />
            <mxPoint x="485.44" y="533" as="targetPoint" />
          </mxGeometry>
        </mxCell>
        <mxCell id="HW-5u9f7S994316d8FzE-155" value="2.8: response : &lt;br&gt;cheeps" style="text;html=1;align=center;verticalAlign=middle;resizable=0;points=[];autosize=1;strokeColor=none;fillColor=none;" parent="1" vertex="1">
          <mxGeometry x="597.75" y="494.5" width="100" height="40" as="geometry" />
        </mxCell>
        <mxCell id="HW-5u9f7S994316d8FzE-156" value="2.9: response : &lt;br&gt;cheeps" style="text;html=1;align=center;verticalAlign=middle;resizable=0;points=[];autosize=1;strokeColor=none;fillColor=none;" parent="1" vertex="1">
          <mxGeometry x="478" y="493" width="100" height="40" as="geometry" />
        </mxCell>
        <mxCell id="HW-5u9f7S994316d8FzE-158" value="" style="edgeStyle=orthogonalEdgeStyle;rounded=0;orthogonalLoop=1;jettySize=auto;html=1;dashed=1;endArrow=none;endFill=0;" parent="1" source="HW-5u9f7S994316d8FzE-198" target="HW-5u9f7S994316d8FzE-157" edge="1">
          <mxGeometry relative="1" as="geometry">
            <mxPoint x="995" y="599" as="sourcePoint" />
            <mxPoint x="995" y="1828" as="targetPoint" />
          </mxGeometry>
        </mxCell>
        <mxCell id="HW-5u9f7S994316d8FzE-157" value="" style="rounded=0;whiteSpace=wrap;html=1;" parent="1" vertex="1">
          <mxGeometry x="987.12" y="1110" width="15" height="19" as="geometry" />
        </mxCell>
        <mxCell id="HW-5u9f7S994316d8FzE-159" value="" style="rounded=0;whiteSpace=wrap;html=1;" parent="1" vertex="1">
          <mxGeometry x="465" y="1209" width="15" height="380" as="geometry" />
        </mxCell>
        <mxCell id="HW-5u9f7S994316d8FzE-160" value="5: POST like" style="text;html=1;align=center;verticalAlign=middle;resizable=0;points=[];autosize=1;strokeColor=none;fillColor=none;" parent="1" vertex="1">
          <mxGeometry x="317" y="1179" width="90" height="30" as="geometry" />
        </mxCell>
        <mxCell id="HW-5u9f7S994316d8FzE-161" value="5.22: respone : Public.cshtml" style="text;html=1;align=center;verticalAlign=middle;resizable=0;points=[];autosize=1;strokeColor=none;fillColor=none;" parent="1" vertex="1">
          <mxGeometry x="270.19" y="1554" width="180" height="30" as="geometry" />
        </mxCell>
        <mxCell id="HW-5u9f7S994316d8FzE-162" value="" style="endArrow=classic;html=1;rounded=0;" parent="1" edge="1">
          <mxGeometry width="50" height="50" relative="1" as="geometry">
            <mxPoint x="271.5" y="1209" as="sourcePoint" />
            <mxPoint x="461.5" y="1209" as="targetPoint" />
            <Array as="points" />
          </mxGeometry>
        </mxCell>
        <mxCell id="HW-5u9f7S994316d8FzE-163" value="" style="endArrow=classic;html=1;rounded=0;" parent="1" edge="1">
          <mxGeometry width="50" height="50" relative="1" as="geometry">
            <mxPoint x="458.44" y="1582" as="sourcePoint" />
            <mxPoint x="268.44" y="1582" as="targetPoint" />
            <Array as="points" />
          </mxGeometry>
        </mxCell>
        <mxCell id="HW-5u9f7S994316d8FzE-164" value="" style="endArrow=classic;html=1;rounded=0;" parent="1" edge="1">
          <mxGeometry width="50" height="50" relative="1" as="geometry">
            <mxPoint x="490" y="1219" as="sourcePoint" />
            <mxPoint x="570" y="1219" as="targetPoint" />
          </mxGeometry>
        </mxCell>
        <mxCell id="HW-5u9f7S994316d8FzE-165" value="" style="rounded=0;whiteSpace=wrap;html=1;" parent="1" vertex="1">
          <mxGeometry x="573.75" y="1209" width="15" height="370" as="geometry" />
        </mxCell>
        <mxCell id="HW-5u9f7S994316d8FzE-166" value="5.1: LikeCheep()" style="text;html=1;align=center;verticalAlign=middle;resizable=0;points=[];autosize=1;strokeColor=none;fillColor=none;" parent="1" vertex="1">
          <mxGeometry x="469" y="1179" width="110" height="30" as="geometry" />
        </mxCell>
        <mxCell id="HW-5u9f7S994316d8FzE-167" value="5.2: LikeCheep()" style="text;html=1;align=center;verticalAlign=middle;resizable=0;points=[];autosize=1;strokeColor=none;fillColor=none;" parent="1" vertex="1">
          <mxGeometry x="588.75" y="1189" width="110" height="30" as="geometry" />
        </mxCell>
        <mxCell id="HW-5u9f7S994316d8FzE-168" value="" style="endArrow=classic;html=1;rounded=0;" parent="1" edge="1">
          <mxGeometry width="50" height="50" relative="1" as="geometry">
            <mxPoint x="598.75" y="1219" as="sourcePoint" />
            <mxPoint x="691" y="1219" as="targetPoint" />
          </mxGeometry>
        </mxCell>
        <mxCell id="HW-5u9f7S994316d8FzE-169" value="" style="rounded=0;whiteSpace=wrap;html=1;" parent="1" vertex="1">
          <mxGeometry x="704" y="1214" width="15" height="365" as="geometry" />
        </mxCell>
        <mxCell id="HW-5u9f7S994316d8FzE-170" value="" style="endArrow=classic;html=1;rounded=0;" parent="1" edge="1">
          <mxGeometry width="50" height="50" relative="1" as="geometry">
            <mxPoint x="732.37" y="1219" as="sourcePoint" />
            <mxPoint x="837.62" y="1219" as="targetPoint" />
          </mxGeometry>
        </mxCell>
        <mxCell id="HW-5u9f7S994316d8FzE-171" value="5.3: request : author" style="text;html=1;align=center;verticalAlign=middle;resizable=0;points=[];autosize=1;strokeColor=none;fillColor=none;" parent="1" vertex="1">
          <mxGeometry x="720" y="1189" width="130" height="30" as="geometry" />
        </mxCell>
        <mxCell id="HW-5u9f7S994316d8FzE-173" value="" style="endArrow=classic;html=1;rounded=0;" parent="1" edge="1">
          <mxGeometry width="50" height="50" relative="1" as="geometry">
            <mxPoint x="883.87" y="1219" as="sourcePoint" />
            <mxPoint x="976.12" y="1219" as="targetPoint" />
          </mxGeometry>
        </mxCell>
        <mxCell id="HW-5u9f7S994316d8FzE-174" value="" style="rounded=0;whiteSpace=wrap;html=1;" parent="1" vertex="1">
          <mxGeometry x="987.37" y="1209" width="15" height="50" as="geometry" />
        </mxCell>
        <mxCell id="HW-5u9f7S994316d8FzE-175" value="5.4: request : JSON" style="text;html=1;align=center;verticalAlign=middle;resizable=0;points=[];autosize=1;strokeColor=none;fillColor=none;" parent="1" vertex="1">
          <mxGeometry x="865" y="1189" width="130" height="30" as="geometry" />
        </mxCell>
        <mxCell id="HW-5u9f7S994316d8FzE-176" value="" style="endArrow=classic;html=1;rounded=0;" parent="1" edge="1">
          <mxGeometry width="50" height="50" relative="1" as="geometry">
            <mxPoint x="967.82" y="1249" as="sourcePoint" />
            <mxPoint x="875.57" y="1249" as="targetPoint" />
          </mxGeometry>
        </mxCell>
        <mxCell id="HW-5u9f7S994316d8FzE-177" value="5.5: respone: JSON" style="text;html=1;align=center;verticalAlign=middle;resizable=0;points=[];autosize=1;strokeColor=none;fillColor=none;" parent="1" vertex="1">
          <mxGeometry x="867.37" y="1217" width="130" height="30" as="geometry" />
        </mxCell>
        <mxCell id="HW-5u9f7S994316d8FzE-180" value="" style="html=1;align=left;spacingLeft=2;endArrow=block;rounded=0;edgeStyle=orthogonalEdgeStyle;curved=0;rounded=0;" parent="1" edge="1">
          <mxGeometry relative="1" as="geometry">
            <mxPoint x="882.63" y="1259" as="sourcePoint" />
            <Array as="points">
              <mxPoint x="912.63" y="1289" />
            </Array>
            <mxPoint x="887.63" y="1289" as="targetPoint" />
          </mxGeometry>
        </mxCell>
        <mxCell id="HW-5u9f7S994316d8FzE-181" value="5.6: make entity instance" style="text;html=1;align=center;verticalAlign=middle;resizable=0;points=[];autosize=1;strokeColor=none;fillColor=none;" parent="1" vertex="1">
          <mxGeometry x="856.69" y="1259" width="160" height="30" as="geometry" />
        </mxCell>
        <mxCell id="HW-5u9f7S994316d8FzE-182" value="" style="endArrow=classic;html=1;rounded=0;" parent="1" edge="1">
          <mxGeometry width="50" height="50" relative="1" as="geometry">
            <mxPoint x="691.69" y="1575.25" as="sourcePoint" />
            <mxPoint x="599.44" y="1575.25" as="targetPoint" />
          </mxGeometry>
        </mxCell>
        <mxCell id="HW-5u9f7S994316d8FzE-183" value="" style="endArrow=classic;html=1;rounded=0;" parent="1" edge="1">
          <mxGeometry width="50" height="50" relative="1" as="geometry">
            <mxPoint x="569.2500000000001" y="1579" as="sourcePoint" />
            <mxPoint x="486.13" y="1579" as="targetPoint" />
          </mxGeometry>
        </mxCell>
        <mxCell id="HW-5u9f7S994316d8FzE-190" value="" style="endArrow=classic;html=1;rounded=0;endSize=6;strokeWidth=1;" parent="1" edge="1">
          <mxGeometry width="50" height="50" relative="1" as="geometry">
            <mxPoint x="727.1700000000001" y="911.4100000000001" as="sourcePoint" />
            <mxPoint x="846.83" y="912.4100000000001" as="targetPoint" />
            <Array as="points" />
          </mxGeometry>
        </mxCell>
        <mxCell id="HW-5u9f7S994316d8FzE-192" value="" style="edgeStyle=orthogonalEdgeStyle;rounded=0;orthogonalLoop=1;jettySize=auto;html=1;entryX=0.5;entryY=0;entryDx=0;entryDy=0;dashed=1;endArrow=none;endFill=0;" parent="1" source="HW-5u9f7S994316d8FzE-133" target="HW-5u9f7S994316d8FzE-191" edge="1">
          <mxGeometry relative="1" as="geometry">
            <mxPoint x="860" y="536" as="sourcePoint" />
            <mxPoint x="862" y="997" as="targetPoint" />
          </mxGeometry>
        </mxCell>
        <mxCell id="HW-5u9f7S994316d8FzE-191" value="" style="rounded=0;whiteSpace=wrap;html=1;" parent="1" vertex="1">
          <mxGeometry x="855" y="909" width="15" height="60" as="geometry" />
        </mxCell>
        <mxCell id="HW-5u9f7S994316d8FzE-193" value="4.3: request : author" style="text;html=1;align=center;verticalAlign=middle;resizable=0;points=[];autosize=1;strokeColor=none;fillColor=none;" parent="1" vertex="1">
          <mxGeometry x="715" y="880" width="130" height="30" as="geometry" />
        </mxCell>
        <mxCell id="HW-5u9f7S994316d8FzE-194" value="" style="endArrow=classic;html=1;rounded=0;endSize=6;strokeWidth=1;" parent="1" edge="1">
          <mxGeometry width="50" height="50" relative="1" as="geometry">
            <mxPoint x="876.6899999999999" y="910" as="sourcePoint" />
            <mxPoint x="970.42" y="909" as="targetPoint" />
            <Array as="points" />
          </mxGeometry>
        </mxCell>
        <mxCell id="HW-5u9f7S994316d8FzE-195" value="" style="endArrow=classic;html=1;rounded=0;endSize=6;strokeWidth=1;" parent="1" edge="1">
          <mxGeometry width="50" height="50" relative="1" as="geometry">
            <mxPoint x="975.85" y="930" as="sourcePoint" />
            <mxPoint x="882.12" y="931" as="targetPoint" />
            <Array as="points">
              <mxPoint x="920" y="931" />
            </Array>
          </mxGeometry>
        </mxCell>
        <mxCell id="HW-5u9f7S994316d8FzE-197" value="" style="endArrow=classic;html=1;rounded=0;endSize=6;strokeWidth=1;" parent="1" edge="1">
          <mxGeometry width="50" height="50" relative="1" as="geometry">
            <mxPoint x="843.83" y="960" as="sourcePoint" />
            <mxPoint x="724.1700000000001" y="959" as="targetPoint" />
            <Array as="points" />
          </mxGeometry>
        </mxCell>
        <mxCell id="HW-5u9f7S994316d8FzE-199" value="" style="edgeStyle=orthogonalEdgeStyle;rounded=0;orthogonalLoop=1;jettySize=auto;html=1;dashed=1;endArrow=none;endFill=0;" parent="1" source="HW-5u9f7S994316d8FzE-137" target="HW-5u9f7S994316d8FzE-198" edge="1">
          <mxGeometry relative="1" as="geometry">
            <mxPoint x="995" y="486" as="sourcePoint" />
            <mxPoint x="995" y="997" as="targetPoint" />
          </mxGeometry>
        </mxCell>
        <mxCell id="HW-5u9f7S994316d8FzE-198" value="" style="rounded=0;whiteSpace=wrap;html=1;" parent="1" vertex="1">
          <mxGeometry x="987.3699999999999" y="901" width="15" height="39" as="geometry" />
        </mxCell>
        <mxCell id="HW-5u9f7S994316d8FzE-200" value="4.4: request : JSON" style="text;html=1;align=center;verticalAlign=middle;resizable=0;points=[];autosize=1;strokeColor=none;fillColor=none;" parent="1" vertex="1">
          <mxGeometry x="856.69" y="880" width="130" height="30" as="geometry" />
        </mxCell>
        <mxCell id="HW-5u9f7S994316d8FzE-201" value="&lt;span style=&quot;color: rgb(0, 0, 0); font-family: Helvetica; font-size: 12px; font-style: normal; font-variant-ligatures: normal; font-variant-caps: normal; font-weight: 400; letter-spacing: normal; orphans: 2; text-align: center; text-indent: 0px; text-transform: none; widows: 2; word-spacing: 0px; -webkit-text-stroke-width: 0px; background-color: rgb(251, 251, 251); text-decoration-thickness: initial; text-decoration-style: initial; text-decoration-color: initial; float: none; display: inline !important;&quot;&gt;4.5: response : JSON&lt;/span&gt;" style="text;whiteSpace=wrap;html=1;" parent="1" vertex="1">
          <mxGeometry x="868.37" y="906" width="120" height="40" as="geometry" />
        </mxCell>
        <mxCell id="HW-5u9f7S994316d8FzE-205" value="" style="html=1;align=left;spacingLeft=2;endArrow=block;rounded=0;edgeStyle=orthogonalEdgeStyle;curved=0;rounded=0;" parent="1" edge="1">
          <mxGeometry x="0.0118" relative="1" as="geometry">
            <mxPoint x="874.69" y="939" as="sourcePoint" />
            <Array as="points">
              <mxPoint x="904.69" y="969" />
            </Array>
            <mxPoint x="879.69" y="969" as="targetPoint" />
            <mxPoint as="offset" />
          </mxGeometry>
        </mxCell>
        <mxCell id="HW-5u9f7S994316d8FzE-206" value="&lt;span style=&quot;color: rgb(0, 0, 0); font-family: Helvetica; font-size: 12px; font-style: normal; font-variant-ligatures: normal; font-variant-caps: normal; font-weight: 400; letter-spacing: normal; orphans: 2; text-align: center; text-indent: 0px; text-transform: none; widows: 2; word-spacing: 0px; -webkit-text-stroke-width: 0px; background-color: rgb(251, 251, 251); text-decoration-thickness: initial; text-decoration-style: initial; text-decoration-color: initial; float: none; display: inline !important;&quot;&gt;4.6: make entity instance&lt;/span&gt;" style="text;whiteSpace=wrap;html=1;" parent="1" vertex="1">
          <mxGeometry x="870" y="940" width="170" height="40" as="geometry" />
        </mxCell>
        <mxCell id="HW-5u9f7S994316d8FzE-207" value="&lt;span style=&quot;color: rgb(0, 0, 0); font-family: Helvetica; font-size: 12px; font-style: normal; font-variant-ligatures: normal; font-variant-caps: normal; font-weight: 400; letter-spacing: normal; orphans: 2; text-align: center; text-indent: 0px; text-transform: none; widows: 2; word-spacing: 0px; -webkit-text-stroke-width: 0px; background-color: rgb(251, 251, 251); text-decoration-thickness: initial; text-decoration-style: initial; text-decoration-color: initial; float: none; display: inline !important;&quot;&gt;4.7: response: author&lt;/span&gt;" style="text;whiteSpace=wrap;html=1;" parent="1" vertex="1">
          <mxGeometry x="728.37" y="933" width="120" height="40" as="geometry" />
        </mxCell>
        <mxCell id="HW-5u9f7S994316d8FzE-51" value="4.8: Create Cheep" style="text;html=1;align=center;verticalAlign=middle;resizable=0;points=[];autosize=1;strokeColor=none;fillColor=none;labelBackgroundColor=default;" parent="1" vertex="1">
          <mxGeometry x="715" y="980" width="120" height="30" as="geometry" />
        </mxCell>
        <mxCell id="HW-5u9f7S994316d8FzE-233" value="" style="endArrow=classic;html=1;rounded=0;" parent="1" edge="1">
          <mxGeometry width="50" height="50" relative="1" as="geometry">
            <mxPoint x="732.69" y="1319" as="sourcePoint" />
            <mxPoint x="837.94" y="1319" as="targetPoint" />
          </mxGeometry>
        </mxCell>
        <mxCell id="HW-5u9f7S994316d8FzE-234" value="5.8: request : cheep" style="text;html=1;align=center;verticalAlign=middle;resizable=0;points=[];autosize=1;strokeColor=none;fillColor=none;" parent="1" vertex="1">
          <mxGeometry x="720.32" y="1289" width="130" height="30" as="geometry" />
        </mxCell>
        <mxCell id="HW-5u9f7S994316d8FzE-235" value="" style="endArrow=classic;html=1;rounded=0;" parent="1" edge="1">
          <mxGeometry width="50" height="50" relative="1" as="geometry">
            <mxPoint x="884.19" y="1319" as="sourcePoint" />
            <mxPoint x="976.44" y="1319" as="targetPoint" />
          </mxGeometry>
        </mxCell>
        <mxCell id="HW-5u9f7S994316d8FzE-236" value="" style="rounded=0;whiteSpace=wrap;html=1;" parent="1" vertex="1">
          <mxGeometry x="987.69" y="1309" width="15" height="50" as="geometry" />
        </mxCell>
        <mxCell id="HW-5u9f7S994316d8FzE-237" value="5.9: request : JSON" style="text;html=1;align=center;verticalAlign=middle;resizable=0;points=[];autosize=1;strokeColor=none;fillColor=none;" parent="1" vertex="1">
          <mxGeometry x="865.32" y="1289" width="130" height="30" as="geometry" />
        </mxCell>
        <mxCell id="HW-5u9f7S994316d8FzE-238" value="" style="endArrow=classic;html=1;rounded=0;" parent="1" edge="1">
          <mxGeometry width="50" height="50" relative="1" as="geometry">
            <mxPoint x="968.1400000000001" y="1349" as="sourcePoint" />
            <mxPoint x="875.8900000000001" y="1349" as="targetPoint" />
          </mxGeometry>
        </mxCell>
        <mxCell id="HW-5u9f7S994316d8FzE-239" value="5.10: respone: JSON" style="text;html=1;align=center;verticalAlign=middle;resizable=0;points=[];autosize=1;strokeColor=none;fillColor=none;" parent="1" vertex="1">
          <mxGeometry x="862.69" y="1317" width="140" height="30" as="geometry" />
        </mxCell>
        <mxCell id="HW-5u9f7S994316d8FzE-240" value="5.11: make entity instance" style="text;html=1;align=center;verticalAlign=middle;resizable=0;points=[];autosize=1;strokeColor=none;fillColor=none;" parent="1" vertex="1">
          <mxGeometry x="856.69" y="1359" width="160" height="30" as="geometry" />
        </mxCell>
        <mxCell id="HW-5u9f7S994316d8FzE-241" value="" style="html=1;align=left;spacingLeft=2;endArrow=block;rounded=0;edgeStyle=orthogonalEdgeStyle;curved=0;rounded=0;" parent="1" edge="1">
          <mxGeometry relative="1" as="geometry">
            <mxPoint x="870" y="1359" as="sourcePoint" />
            <Array as="points">
              <mxPoint x="900" y="1389" />
            </Array>
            <mxPoint x="875" y="1389" as="targetPoint" />
          </mxGeometry>
        </mxCell>
        <mxCell id="HW-5u9f7S994316d8FzE-243" value="" style="endArrow=classic;html=1;rounded=0;" parent="1" edge="1">
          <mxGeometry width="50" height="50" relative="1" as="geometry">
            <mxPoint x="730" y="1426.19" as="sourcePoint" />
            <mxPoint x="835.25" y="1426.19" as="targetPoint" />
          </mxGeometry>
        </mxCell>
        <mxCell id="HW-5u9f7S994316d8FzE-244" value="" style="endArrow=classic;html=1;rounded=0;" parent="1" edge="1">
          <mxGeometry width="50" height="50" relative="1" as="geometry">
            <mxPoint x="881.5" y="1426.19" as="sourcePoint" />
            <mxPoint x="973.75" y="1426.19" as="targetPoint" />
          </mxGeometry>
        </mxCell>
        <mxCell id="HW-5u9f7S994316d8FzE-245" value="" style="rounded=0;whiteSpace=wrap;html=1;" parent="1" vertex="1">
          <mxGeometry x="985" y="1416.19" width="15" height="50" as="geometry" />
        </mxCell>
        <mxCell id="HW-5u9f7S994316d8FzE-246" value="5.14: request : JSON" style="text;html=1;align=center;verticalAlign=middle;resizable=0;points=[];autosize=1;strokeColor=none;fillColor=none;" parent="1" vertex="1">
          <mxGeometry x="857.63" y="1396.19" width="140" height="30" as="geometry" />
        </mxCell>
        <mxCell id="HW-5u9f7S994316d8FzE-247" value="" style="endArrow=classic;html=1;rounded=0;" parent="1" edge="1">
          <mxGeometry width="50" height="50" relative="1" as="geometry">
            <mxPoint x="965.45" y="1456.19" as="sourcePoint" />
            <mxPoint x="873.2" y="1456.19" as="targetPoint" />
          </mxGeometry>
        </mxCell>
        <mxCell id="HW-5u9f7S994316d8FzE-248" value="5.15: respone: JSON" style="text;html=1;align=center;verticalAlign=middle;resizable=0;points=[];autosize=1;strokeColor=none;fillColor=none;" parent="1" vertex="1">
          <mxGeometry x="860" y="1424.19" width="140" height="30" as="geometry" />
        </mxCell>
        <mxCell id="HW-5u9f7S994316d8FzE-249" value="5.16: make entity instance" style="text;html=1;align=center;verticalAlign=middle;resizable=0;points=[];autosize=1;strokeColor=none;fillColor=none;" parent="1" vertex="1">
          <mxGeometry x="861.37" y="1466.19" width="160" height="30" as="geometry" />
        </mxCell>
        <mxCell id="HW-5u9f7S994316d8FzE-250" value="" style="html=1;align=left;spacingLeft=2;endArrow=block;rounded=0;edgeStyle=orthogonalEdgeStyle;curved=0;rounded=0;" parent="1" edge="1">
          <mxGeometry relative="1" as="geometry">
            <mxPoint x="867.31" y="1466.19" as="sourcePoint" />
            <Array as="points">
              <mxPoint x="897.31" y="1496.19" />
            </Array>
            <mxPoint x="872.31" y="1496.19" as="targetPoint" />
          </mxGeometry>
        </mxCell>
        <mxCell id="HW-5u9f7S994316d8FzE-253" value="" style="edgeStyle=orthogonalEdgeStyle;rounded=0;orthogonalLoop=1;jettySize=auto;html=1;dashed=1;endArrow=none;endFill=0;" parent="1" source="HW-5u9f7S994316d8FzE-116" target="HW-5u9f7S994316d8FzE-252" edge="1">
          <mxGeometry relative="1" as="geometry">
            <mxPoint x="860" y="1829" as="targetPoint" />
            <mxPoint x="861" y="1129" as="sourcePoint" />
          </mxGeometry>
        </mxCell>
        <mxCell id="HW-5u9f7S994316d8FzE-252" value="" style="rounded=0;whiteSpace=wrap;html=1;" parent="1" vertex="1">
          <mxGeometry x="854" y="1416.19" width="15" height="87.81" as="geometry" />
        </mxCell>
        <mxCell id="HW-5u9f7S994316d8FzE-254" value="&lt;span style=&quot;color: rgb(0, 0, 0); font-family: Helvetica; font-size: 12px; font-style: normal; font-variant-ligatures: normal; font-variant-caps: normal; font-weight: 400; letter-spacing: normal; orphans: 2; text-align: center; text-indent: 0px; text-transform: none; widows: 2; word-spacing: 0px; -webkit-text-stroke-width: 0px; background-color: rgb(251, 251, 251); text-decoration-thickness: initial; text-decoration-style: initial; text-decoration-color: initial; float: none; display: inline !important;&quot;&gt;5.13: request : like&lt;/span&gt;" style="text;whiteSpace=wrap;html=1;" parent="1" vertex="1">
          <mxGeometry x="729" y="1401.19" width="140" height="40" as="geometry" />
        </mxCell>
        <mxCell id="HW-5u9f7S994316d8FzE-255" value="" style="endArrow=classic;html=1;rounded=0;" parent="1" edge="1">
          <mxGeometry width="50" height="50" relative="1" as="geometry">
            <mxPoint x="838.63" y="1289" as="sourcePoint" />
            <mxPoint x="733.38" y="1289" as="targetPoint" />
          </mxGeometry>
        </mxCell>
        <mxCell id="HW-5u9f7S994316d8FzE-256" value="" style="endArrow=classic;html=1;rounded=0;" parent="1" edge="1">
          <mxGeometry width="50" height="50" relative="1" as="geometry">
            <mxPoint x="840.99" y="1389" as="sourcePoint" />
            <mxPoint x="735.74" y="1389" as="targetPoint" />
          </mxGeometry>
        </mxCell>
        <mxCell id="HW-5u9f7S994316d8FzE-257" value="" style="endArrow=classic;html=1;rounded=0;" parent="1" edge="1">
          <mxGeometry width="50" height="50" relative="1" as="geometry">
            <mxPoint x="835.62" y="1496.19" as="sourcePoint" />
            <mxPoint x="730.37" y="1496.19" as="targetPoint" />
          </mxGeometry>
        </mxCell>
        <mxCell id="HW-5u9f7S994316d8FzE-258" value="&lt;span style=&quot;color: rgb(0, 0, 0); font-family: Helvetica; font-size: 12px; font-style: normal; font-variant-ligatures: normal; font-variant-caps: normal; font-weight: 400; letter-spacing: normal; orphans: 2; text-align: center; text-indent: 0px; text-transform: none; widows: 2; word-spacing: 0px; -webkit-text-stroke-width: 0px; background-color: rgb(251, 251, 251); text-decoration-thickness: initial; text-decoration-style: initial; text-decoration-color: initial; float: none; display: inline !important;&quot;&gt;5.7: response : author&lt;/span&gt;" style="text;whiteSpace=wrap;html=1;" parent="1" vertex="1">
          <mxGeometry x="725" y="1262" width="140" height="40" as="geometry" />
        </mxCell>
        <mxCell id="HW-5u9f7S994316d8FzE-259" value="&lt;span style=&quot;color: rgb(0, 0, 0); font-family: Helvetica; font-size: 12px; font-style: normal; font-variant-ligatures: normal; font-variant-caps: normal; font-weight: 400; letter-spacing: normal; orphans: 2; text-align: center; text-indent: 0px; text-transform: none; widows: 2; word-spacing: 0px; -webkit-text-stroke-width: 0px; background-color: rgb(251, 251, 251); text-decoration-thickness: initial; text-decoration-style: initial; text-decoration-color: initial; float: none; display: inline !important;&quot;&gt;5.12: response : cheep&lt;/span&gt;" style="text;whiteSpace=wrap;html=1;" parent="1" vertex="1">
          <mxGeometry x="737.37" y="1361.19" width="130" height="40" as="geometry" />
        </mxCell>
        <mxCell id="HW-5u9f7S994316d8FzE-260" value="&lt;span style=&quot;color: rgb(0, 0, 0); font-family: Helvetica; font-size: 12px; font-style: normal; font-variant-ligatures: normal; font-variant-caps: normal; font-weight: 400; letter-spacing: normal; orphans: 2; text-align: center; text-indent: 0px; text-transform: none; widows: 2; word-spacing: 0px; -webkit-text-stroke-width: 0px; background-color: rgb(251, 251, 251); text-decoration-thickness: initial; text-decoration-style: initial; text-decoration-color: initial; float: none; display: inline !important;&quot;&gt;5.17: response : like&lt;/span&gt;" style="text;whiteSpace=wrap;html=1;" parent="1" vertex="1">
          <mxGeometry x="735.69" y="1471.19" width="130" height="40" as="geometry" />
        </mxCell>
        <mxCell id="HW-5u9f7S994316d8FzE-261" value="" style="html=1;align=left;spacingLeft=2;endArrow=block;rounded=0;edgeStyle=orthogonalEdgeStyle;curved=0;rounded=0;" parent="1" edge="1">
          <mxGeometry relative="1" as="geometry">
            <mxPoint x="724" y="1504" as="sourcePoint" />
            <Array as="points">
              <mxPoint x="754" y="1534" />
            </Array>
            <mxPoint x="729" y="1534" as="targetPoint" />
          </mxGeometry>
        </mxCell>
        <mxCell id="HW-5u9f7S994316d8FzE-262" value="5.18 Create Like" style="text;html=1;align=center;verticalAlign=middle;resizable=0;points=[];autosize=1;strokeColor=none;fillColor=none;" parent="1" vertex="1">
          <mxGeometry x="713.69" y="1504" width="110" height="30" as="geometry" />
        </mxCell>
        <mxCell id="HW-5u9f7S994316d8FzE-263" value="" style="endArrow=classic;html=1;rounded=0;" parent="1" edge="1">
          <mxGeometry width="50" height="50" relative="1" as="geometry">
            <mxPoint x="725.94" y="1553.5" as="sourcePoint" />
            <mxPoint x="844.69" y="1553.5" as="targetPoint" />
            <Array as="points">
              <mxPoint x="781" y="1554" />
            </Array>
          </mxGeometry>
        </mxCell>
        <mxCell id="HW-5u9f7S994316d8FzE-264" value="5.20 SaveChanges()" style="text;html=1;align=center;verticalAlign=middle;resizable=0;points=[];autosize=1;strokeColor=none;fillColor=none;" parent="1" vertex="1">
          <mxGeometry x="719.32" y="1550.5" width="130" height="30" as="geometry" />
        </mxCell>
        <mxCell id="HW-5u9f7S994316d8FzE-265" value="" style="rounded=0;whiteSpace=wrap;html=1;" parent="1" vertex="1">
          <mxGeometry x="855.32" y="1565" width="15" height="19" as="geometry" />
        </mxCell>
        <mxCell id="HW-5u9f7S994316d8FzE-266" value="" style="endArrow=classic;html=1;rounded=0;" parent="1" edge="1">
          <mxGeometry width="50" height="50" relative="1" as="geometry">
            <mxPoint x="726.95" y="1574" as="sourcePoint" />
            <mxPoint x="845.7" y="1574" as="targetPoint" />
          </mxGeometry>
        </mxCell>
        <mxCell id="HW-5u9f7S994316d8FzE-267" value="" style="endArrow=classic;html=1;rounded=0;" parent="1" edge="1">
          <mxGeometry width="50" height="50" relative="1" as="geometry">
            <mxPoint x="878.32" y="1574" as="sourcePoint" />
            <mxPoint x="984.32" y="1574.1799999999998" as="targetPoint" />
          </mxGeometry>
        </mxCell>
        <mxCell id="HW-5u9f7S994316d8FzE-268" value="5.21 SaveChanges()" style="text;html=1;align=center;verticalAlign=middle;resizable=0;points=[];autosize=1;strokeColor=none;fillColor=none;" parent="1" vertex="1">
          <mxGeometry x="866.32" y="1543" width="130" height="30" as="geometry" />
        </mxCell>
        <mxCell id="HW-5u9f7S994316d8FzE-269" value="" style="rounded=0;whiteSpace=wrap;html=1;" parent="1" vertex="1">
          <mxGeometry x="988.44" y="1565" width="15" height="19" as="geometry" />
        </mxCell>
        <mxCell id="HW-5u9f7S994316d8FzE-272" value="" style="edgeStyle=orthogonalEdgeStyle;rounded=0;orthogonalLoop=1;jettySize=auto;html=1;dashed=1;endArrow=none;endFill=0;" parent="1" source="HW-5u9f7S994316d8FzE-14" target="HW-5u9f7S994316d8FzE-270" edge="1">
          <mxGeometry relative="1" as="geometry">
            <mxPoint x="265" y="40" as="sourcePoint" />
            <mxPoint x="265" y="1360" as="targetPoint" />
          </mxGeometry>
        </mxCell>
        <mxCell id="HW-5u9f7S994316d8FzE-270" value="User authorized" style="rounded=1;whiteSpace=wrap;html=1;arcSize=40;fontColor=#000000;fillColor=#ffffc0;strokeColor=#ff0000;" parent="1" vertex="1">
          <mxGeometry x="224" y="775" width="70" height="40" as="geometry" />
        </mxCell>
        <mxCell id="HW-5u9f7S994316d8FzE-276" value="" style="edgeStyle=orthogonalEdgeStyle;rounded=0;orthogonalLoop=1;jettySize=auto;html=1;entryX=0.5;entryY=0;entryDx=0;entryDy=0;dashed=1;endArrow=none;endFill=0;" parent="1" source="HW-5u9f7S994316d8FzE-191" target="HW-5u9f7S994316d8FzE-275" edge="1">
          <mxGeometry relative="1" as="geometry">
            <mxPoint x="863" y="969" as="sourcePoint" />
            <mxPoint x="862" y="1110" as="targetPoint" />
          </mxGeometry>
        </mxCell>
        <mxCell id="HW-5u9f7S994316d8FzE-275" value="" style="rounded=0;whiteSpace=wrap;html=1;" parent="1" vertex="1">
          <mxGeometry x="854" y="1078" width="15" height="19" as="geometry" />
        </mxCell>
        <mxCell id="HW-5u9f7S994316d8FzE-278" value="" style="edgeStyle=orthogonalEdgeStyle;rounded=0;orthogonalLoop=1;jettySize=auto;html=1;dashed=1;endArrow=none;endFill=0;" parent="1" source="HW-5u9f7S994316d8FzE-252" target="HW-5u9f7S994316d8FzE-277" edge="1">
          <mxGeometry relative="1" as="geometry">
            <mxPoint x="860" y="1829" as="targetPoint" />
            <mxPoint x="861" y="1504" as="sourcePoint" />
          </mxGeometry>
        </mxCell>
        <mxCell id="HW-5u9f7S994316d8FzE-277" value="" style="rounded=0;whiteSpace=wrap;html=1;" parent="1" vertex="1">
          <mxGeometry x="855.3199999999999" y="1543" width="15" height="19" as="geometry" />
        </mxCell>
        <mxCell id="HW-5u9f7S994316d8FzE-281" value="&lt;span style=&quot;color: rgb(0, 0, 0); font-family: Helvetica; font-size: 12px; font-style: normal; font-variant-ligatures: normal; font-variant-caps: normal; font-weight: 400; letter-spacing: normal; orphans: 2; text-align: center; text-indent: 0px; text-transform: none; widows: 2; word-spacing: 0px; -webkit-text-stroke-width: 0px; background-color: rgb(251, 251, 251); text-decoration-thickness: initial; text-decoration-style: initial; text-decoration-color: initial; float: none; display: inline !important;&quot;&gt;6.18: Remove Like&lt;/span&gt;" style="text;whiteSpace=wrap;html=1;" parent="1" vertex="1">
          <mxGeometry x="730.37" y="1981" width="160" height="40" as="geometry" />
        </mxCell>
        <mxCell id="HW-5u9f7S994316d8FzE-282" value="" style="rounded=0;whiteSpace=wrap;html=1;" parent="1" vertex="1">
          <mxGeometry x="465" y="1659" width="15" height="380" as="geometry" />
        </mxCell>
        <mxCell id="HW-5u9f7S994316d8FzE-283" value="6: DELETE like" style="text;html=1;align=center;verticalAlign=middle;resizable=0;points=[];autosize=1;strokeColor=none;fillColor=none;" parent="1" vertex="1">
          <mxGeometry x="312" y="1629" width="100" height="30" as="geometry" />
        </mxCell>
        <mxCell id="HW-5u9f7S994316d8FzE-284" value="6.21: respone : Public.cshtml" style="text;html=1;align=center;verticalAlign=middle;resizable=0;points=[];autosize=1;strokeColor=none;fillColor=none;" parent="1" vertex="1">
          <mxGeometry x="270.19" y="2004" width="180" height="30" as="geometry" />
        </mxCell>
        <mxCell id="HW-5u9f7S994316d8FzE-285" value="" style="endArrow=classic;html=1;rounded=0;" parent="1" edge="1">
          <mxGeometry width="50" height="50" relative="1" as="geometry">
            <mxPoint x="271.5" y="1659" as="sourcePoint" />
            <mxPoint x="461.5" y="1659" as="targetPoint" />
            <Array as="points" />
          </mxGeometry>
        </mxCell>
        <mxCell id="HW-5u9f7S994316d8FzE-286" value="" style="endArrow=classic;html=1;rounded=0;" parent="1" edge="1">
          <mxGeometry width="50" height="50" relative="1" as="geometry">
            <mxPoint x="458.44" y="2032" as="sourcePoint" />
            <mxPoint x="268.44" y="2032" as="targetPoint" />
            <Array as="points" />
          </mxGeometry>
        </mxCell>
        <mxCell id="HW-5u9f7S994316d8FzE-287" value="" style="endArrow=classic;html=1;rounded=0;" parent="1" edge="1">
          <mxGeometry width="50" height="50" relative="1" as="geometry">
            <mxPoint x="490" y="1669" as="sourcePoint" />
            <mxPoint x="570" y="1669" as="targetPoint" />
          </mxGeometry>
        </mxCell>
        <mxCell id="HW-5u9f7S994316d8FzE-288" value="" style="rounded=0;whiteSpace=wrap;html=1;" parent="1" vertex="1">
          <mxGeometry x="573.75" y="1659" width="15" height="370" as="geometry" />
        </mxCell>
        <mxCell id="HW-5u9f7S994316d8FzE-289" value="6.1: RemoveLike()" style="text;html=1;align=center;verticalAlign=middle;resizable=0;points=[];autosize=1;strokeColor=none;fillColor=none;" parent="1" vertex="1">
          <mxGeometry x="464" y="1629" width="120" height="30" as="geometry" />
        </mxCell>
        <mxCell id="HW-5u9f7S994316d8FzE-290" value="6.2: RemoveLike()" style="text;html=1;align=center;verticalAlign=middle;resizable=0;points=[];autosize=1;strokeColor=none;fillColor=none;" parent="1" vertex="1">
          <mxGeometry x="583.75" y="1639" width="120" height="30" as="geometry" />
        </mxCell>
        <mxCell id="HW-5u9f7S994316d8FzE-291" value="" style="endArrow=classic;html=1;rounded=0;" parent="1" edge="1">
          <mxGeometry width="50" height="50" relative="1" as="geometry">
            <mxPoint x="598.75" y="1669" as="sourcePoint" />
            <mxPoint x="691" y="1669" as="targetPoint" />
          </mxGeometry>
        </mxCell>
        <mxCell id="HW-5u9f7S994316d8FzE-292" value="" style="rounded=0;whiteSpace=wrap;html=1;" parent="1" vertex="1">
          <mxGeometry x="704" y="1664" width="15" height="365" as="geometry" />
        </mxCell>
        <mxCell id="HW-5u9f7S994316d8FzE-293" value="" style="endArrow=classic;html=1;rounded=0;" parent="1" edge="1">
          <mxGeometry width="50" height="50" relative="1" as="geometry">
            <mxPoint x="732.37" y="1669" as="sourcePoint" />
            <mxPoint x="837.62" y="1669" as="targetPoint" />
          </mxGeometry>
        </mxCell>
        <mxCell id="HW-5u9f7S994316d8FzE-294" value="6.3: request : author" style="text;html=1;align=center;verticalAlign=middle;resizable=0;points=[];autosize=1;strokeColor=none;fillColor=none;" parent="1" vertex="1">
          <mxGeometry x="720" y="1639" width="130" height="30" as="geometry" />
        </mxCell>
        <mxCell id="HW-5u9f7S994316d8FzE-295" value="" style="rounded=0;whiteSpace=wrap;html=1;" parent="1" vertex="1">
          <mxGeometry x="852.37" y="1664" width="15" height="85" as="geometry" />
        </mxCell>
        <mxCell id="HW-5u9f7S994316d8FzE-296" value="" style="endArrow=classic;html=1;rounded=0;" parent="1" edge="1">
          <mxGeometry width="50" height="50" relative="1" as="geometry">
            <mxPoint x="883.87" y="1669" as="sourcePoint" />
            <mxPoint x="976.12" y="1669" as="targetPoint" />
          </mxGeometry>
        </mxCell>
        <mxCell id="HW-5u9f7S994316d8FzE-297" value="" style="rounded=0;whiteSpace=wrap;html=1;" parent="1" vertex="1">
          <mxGeometry x="987.37" y="1659" width="15" height="50" as="geometry" />
        </mxCell>
        <mxCell id="HW-5u9f7S994316d8FzE-298" value="6.4: request : JSON" style="text;html=1;align=center;verticalAlign=middle;resizable=0;points=[];autosize=1;strokeColor=none;fillColor=none;" parent="1" vertex="1">
          <mxGeometry x="865" y="1639" width="130" height="30" as="geometry" />
        </mxCell>
        <mxCell id="HW-5u9f7S994316d8FzE-299" value="" style="endArrow=classic;html=1;rounded=0;" parent="1" edge="1">
          <mxGeometry width="50" height="50" relative="1" as="geometry">
            <mxPoint x="967.82" y="1699" as="sourcePoint" />
            <mxPoint x="875.57" y="1699" as="targetPoint" />
          </mxGeometry>
        </mxCell>
        <mxCell id="HW-5u9f7S994316d8FzE-300" value="6.5: respone: JSON" style="text;html=1;align=center;verticalAlign=middle;resizable=0;points=[];autosize=1;strokeColor=none;fillColor=none;" parent="1" vertex="1">
          <mxGeometry x="867.37" y="1667" width="130" height="30" as="geometry" />
        </mxCell>
        <mxCell id="HW-5u9f7S994316d8FzE-301" value="" style="html=1;align=left;spacingLeft=2;endArrow=block;rounded=0;edgeStyle=orthogonalEdgeStyle;curved=0;rounded=0;" parent="1" edge="1">
          <mxGeometry relative="1" as="geometry">
            <mxPoint x="882.63" y="1709" as="sourcePoint" />
            <Array as="points">
              <mxPoint x="912.63" y="1739" />
            </Array>
            <mxPoint x="887.63" y="1739" as="targetPoint" />
          </mxGeometry>
        </mxCell>
        <mxCell id="HW-5u9f7S994316d8FzE-302" value="6.6: make entity instance" style="text;html=1;align=center;verticalAlign=middle;resizable=0;points=[];autosize=1;strokeColor=none;fillColor=none;" parent="1" vertex="1">
          <mxGeometry x="856.69" y="1709" width="160" height="30" as="geometry" />
        </mxCell>
        <mxCell id="HW-5u9f7S994316d8FzE-303" value="" style="endArrow=classic;html=1;rounded=0;" parent="1" edge="1">
          <mxGeometry width="50" height="50" relative="1" as="geometry">
            <mxPoint x="691.69" y="2025.25" as="sourcePoint" />
            <mxPoint x="599.44" y="2025.25" as="targetPoint" />
          </mxGeometry>
        </mxCell>
        <mxCell id="HW-5u9f7S994316d8FzE-304" value="" style="endArrow=classic;html=1;rounded=0;" parent="1" edge="1">
          <mxGeometry width="50" height="50" relative="1" as="geometry">
            <mxPoint x="569.2500000000001" y="2029" as="sourcePoint" />
            <mxPoint x="486.13" y="2029" as="targetPoint" />
          </mxGeometry>
        </mxCell>
        <mxCell id="HW-5u9f7S994316d8FzE-305" value="" style="endArrow=classic;html=1;rounded=0;" parent="1" edge="1">
          <mxGeometry width="50" height="50" relative="1" as="geometry">
            <mxPoint x="732.69" y="1769" as="sourcePoint" />
            <mxPoint x="837.94" y="1769" as="targetPoint" />
          </mxGeometry>
        </mxCell>
        <mxCell id="HW-5u9f7S994316d8FzE-306" value="6.8: request : cheep" style="text;html=1;align=center;verticalAlign=middle;resizable=0;points=[];autosize=1;strokeColor=none;fillColor=none;" parent="1" vertex="1">
          <mxGeometry x="720.32" y="1739" width="130" height="30" as="geometry" />
        </mxCell>
        <mxCell id="HW-5u9f7S994316d8FzE-307" value="" style="endArrow=classic;html=1;rounded=0;" parent="1" edge="1">
          <mxGeometry width="50" height="50" relative="1" as="geometry">
            <mxPoint x="884.19" y="1769" as="sourcePoint" />
            <mxPoint x="976.44" y="1769" as="targetPoint" />
          </mxGeometry>
        </mxCell>
        <mxCell id="HW-5u9f7S994316d8FzE-308" value="" style="rounded=0;whiteSpace=wrap;html=1;" parent="1" vertex="1">
          <mxGeometry x="987.69" y="1759" width="15" height="50" as="geometry" />
        </mxCell>
        <mxCell id="HW-5u9f7S994316d8FzE-309" value="6.9: request : JSON" style="text;html=1;align=center;verticalAlign=middle;resizable=0;points=[];autosize=1;strokeColor=none;fillColor=none;" parent="1" vertex="1">
          <mxGeometry x="865.32" y="1739" width="130" height="30" as="geometry" />
        </mxCell>
        <mxCell id="HW-5u9f7S994316d8FzE-310" value="" style="endArrow=classic;html=1;rounded=0;" parent="1" edge="1">
          <mxGeometry width="50" height="50" relative="1" as="geometry">
            <mxPoint x="968.1400000000001" y="1799" as="sourcePoint" />
            <mxPoint x="875.8900000000001" y="1799" as="targetPoint" />
          </mxGeometry>
        </mxCell>
        <mxCell id="HW-5u9f7S994316d8FzE-311" value="6.10: respone: JSON" style="text;html=1;align=center;verticalAlign=middle;resizable=0;points=[];autosize=1;strokeColor=none;fillColor=none;" parent="1" vertex="1">
          <mxGeometry x="862.69" y="1767" width="140" height="30" as="geometry" />
        </mxCell>
        <mxCell id="HW-5u9f7S994316d8FzE-313" value="" style="html=1;align=left;spacingLeft=2;endArrow=block;rounded=0;edgeStyle=orthogonalEdgeStyle;curved=0;rounded=0;" parent="1" edge="1">
          <mxGeometry relative="1" as="geometry">
            <mxPoint x="870" y="1809" as="sourcePoint" />
            <Array as="points">
              <mxPoint x="900" y="1839" />
            </Array>
            <mxPoint x="875" y="1839" as="targetPoint" />
          </mxGeometry>
        </mxCell>
        <mxCell id="HW-5u9f7S994316d8FzE-314" value="" style="endArrow=classic;html=1;rounded=0;" parent="1" edge="1">
          <mxGeometry width="50" height="50" relative="1" as="geometry">
            <mxPoint x="730" y="1876.19" as="sourcePoint" />
            <mxPoint x="835.25" y="1876.19" as="targetPoint" />
          </mxGeometry>
        </mxCell>
        <mxCell id="HW-5u9f7S994316d8FzE-315" value="" style="endArrow=classic;html=1;rounded=0;" parent="1" edge="1">
          <mxGeometry width="50" height="50" relative="1" as="geometry">
            <mxPoint x="881.5" y="1876.19" as="sourcePoint" />
            <mxPoint x="973.75" y="1876.19" as="targetPoint" />
          </mxGeometry>
        </mxCell>
        <mxCell id="HW-5u9f7S994316d8FzE-316" value="" style="rounded=0;whiteSpace=wrap;html=1;" parent="1" vertex="1">
          <mxGeometry x="985" y="1866.19" width="15" height="50" as="geometry" />
        </mxCell>
        <mxCell id="HW-5u9f7S994316d8FzE-317" value="6.14: request : JSON" style="text;html=1;align=center;verticalAlign=middle;resizable=0;points=[];autosize=1;strokeColor=none;fillColor=none;" parent="1" vertex="1">
          <mxGeometry x="857.63" y="1846.19" width="140" height="30" as="geometry" />
        </mxCell>
        <mxCell id="HW-5u9f7S994316d8FzE-318" value="" style="endArrow=classic;html=1;rounded=0;" parent="1" edge="1">
          <mxGeometry width="50" height="50" relative="1" as="geometry">
            <mxPoint x="965.45" y="1906.19" as="sourcePoint" />
            <mxPoint x="873.2" y="1906.19" as="targetPoint" />
          </mxGeometry>
        </mxCell>
        <mxCell id="HW-5u9f7S994316d8FzE-319" value="6.15: respone: JSON" style="text;html=1;align=center;verticalAlign=middle;resizable=0;points=[];autosize=1;strokeColor=none;fillColor=none;" parent="1" vertex="1">
          <mxGeometry x="860" y="1874.19" width="140" height="30" as="geometry" />
        </mxCell>
        <mxCell id="HW-5u9f7S994316d8FzE-320" value="6.16: make entity instance" style="text;html=1;align=center;verticalAlign=middle;resizable=0;points=[];autosize=1;strokeColor=none;fillColor=none;" parent="1" vertex="1">
          <mxGeometry x="861.37" y="1916.19" width="160" height="30" as="geometry" />
        </mxCell>
        <mxCell id="HW-5u9f7S994316d8FzE-321" value="" style="html=1;align=left;spacingLeft=2;endArrow=block;rounded=0;edgeStyle=orthogonalEdgeStyle;curved=0;rounded=0;" parent="1" edge="1">
          <mxGeometry relative="1" as="geometry">
            <mxPoint x="867.31" y="1916.19" as="sourcePoint" />
            <Array as="points">
              <mxPoint x="897.31" y="1946.19" />
            </Array>
            <mxPoint x="872.31" y="1946.19" as="targetPoint" />
          </mxGeometry>
        </mxCell>
        <mxCell id="HW-5u9f7S994316d8FzE-322" value="" style="rounded=0;whiteSpace=wrap;html=1;" parent="1" vertex="1">
          <mxGeometry x="852.69" y="1761.19" width="15" height="87.81" as="geometry" />
        </mxCell>
        <mxCell id="HW-5u9f7S994316d8FzE-323" value="" style="rounded=0;whiteSpace=wrap;html=1;" parent="1" vertex="1">
          <mxGeometry x="854" y="1866.19" width="15" height="87.81" as="geometry" />
        </mxCell>
        <mxCell id="HW-5u9f7S994316d8FzE-324" value="&lt;span style=&quot;color: rgb(0, 0, 0); font-family: Helvetica; font-size: 12px; font-style: normal; font-variant-ligatures: normal; font-variant-caps: normal; font-weight: 400; letter-spacing: normal; orphans: 2; text-align: center; text-indent: 0px; text-transform: none; widows: 2; word-spacing: 0px; -webkit-text-stroke-width: 0px; background-color: rgb(251, 251, 251); text-decoration-thickness: initial; text-decoration-style: initial; text-decoration-color: initial; float: none; display: inline !important;&quot;&gt;6.13: request : like&lt;/span&gt;" style="text;whiteSpace=wrap;html=1;" parent="1" vertex="1">
          <mxGeometry x="729" y="1851.19" width="140" height="40" as="geometry" />
        </mxCell>
        <mxCell id="HW-5u9f7S994316d8FzE-325" value="" style="endArrow=classic;html=1;rounded=0;" parent="1" edge="1">
          <mxGeometry width="50" height="50" relative="1" as="geometry">
            <mxPoint x="838.63" y="1739" as="sourcePoint" />
            <mxPoint x="733.38" y="1739" as="targetPoint" />
          </mxGeometry>
        </mxCell>
        <mxCell id="HW-5u9f7S994316d8FzE-326" value="" style="endArrow=classic;html=1;rounded=0;" parent="1" edge="1">
          <mxGeometry width="50" height="50" relative="1" as="geometry">
            <mxPoint x="840.99" y="1839" as="sourcePoint" />
            <mxPoint x="735.74" y="1839" as="targetPoint" />
          </mxGeometry>
        </mxCell>
        <mxCell id="HW-5u9f7S994316d8FzE-327" value="" style="endArrow=classic;html=1;rounded=0;" parent="1" edge="1">
          <mxGeometry width="50" height="50" relative="1" as="geometry">
            <mxPoint x="835.62" y="1946.19" as="sourcePoint" />
            <mxPoint x="730.37" y="1946.19" as="targetPoint" />
          </mxGeometry>
        </mxCell>
        <mxCell id="HW-5u9f7S994316d8FzE-328" value="&lt;span style=&quot;color: rgb(0, 0, 0); font-family: Helvetica; font-size: 12px; font-style: normal; font-variant-ligatures: normal; font-variant-caps: normal; font-weight: 400; letter-spacing: normal; orphans: 2; text-align: center; text-indent: 0px; text-transform: none; widows: 2; word-spacing: 0px; -webkit-text-stroke-width: 0px; background-color: rgb(251, 251, 251); text-decoration-thickness: initial; text-decoration-style: initial; text-decoration-color: initial; float: none; display: inline !important;&quot;&gt;6.7: response : author&lt;/span&gt;" style="text;whiteSpace=wrap;html=1;" parent="1" vertex="1">
          <mxGeometry x="725" y="1712" width="140" height="40" as="geometry" />
        </mxCell>
        <mxCell id="HW-5u9f7S994316d8FzE-329" value="&lt;span style=&quot;color: rgb(0, 0, 0); font-family: Helvetica; font-size: 12px; font-style: normal; font-variant-ligatures: normal; font-variant-caps: normal; font-weight: 400; letter-spacing: normal; orphans: 2; text-align: center; text-indent: 0px; text-transform: none; widows: 2; word-spacing: 0px; -webkit-text-stroke-width: 0px; background-color: rgb(251, 251, 251); text-decoration-thickness: initial; text-decoration-style: initial; text-decoration-color: initial; float: none; display: inline !important;&quot;&gt;6.12: response : cheep&lt;/span&gt;" style="text;whiteSpace=wrap;html=1;" parent="1" vertex="1">
          <mxGeometry x="725.37" y="1810.19" width="130" height="40" as="geometry" />
        </mxCell>
        <mxCell id="HW-5u9f7S994316d8FzE-330" value="&lt;span style=&quot;color: rgb(0, 0, 0); font-family: Helvetica; font-size: 12px; font-style: normal; font-variant-ligatures: normal; font-variant-caps: normal; font-weight: 400; letter-spacing: normal; orphans: 2; text-align: center; text-indent: 0px; text-transform: none; widows: 2; word-spacing: 0px; -webkit-text-stroke-width: 0px; background-color: rgb(251, 251, 251); text-decoration-thickness: initial; text-decoration-style: initial; text-decoration-color: initial; float: none; display: inline !important;&quot;&gt;6.17: response : like&lt;/span&gt;" style="text;whiteSpace=wrap;html=1;" parent="1" vertex="1">
          <mxGeometry x="727.69" y="1921.19" width="130" height="40" as="geometry" />
        </mxCell>
        <mxCell id="HW-5u9f7S994316d8FzE-333" value="" style="endArrow=classic;html=1;rounded=0;" parent="1" edge="1">
          <mxGeometry width="50" height="50" relative="1" as="geometry">
            <mxPoint x="725.94" y="2003.5" as="sourcePoint" />
            <mxPoint x="844.69" y="2003.5" as="targetPoint" />
            <Array as="points">
              <mxPoint x="781" y="2004" />
            </Array>
          </mxGeometry>
        </mxCell>
        <mxCell id="HW-5u9f7S994316d8FzE-334" value="6.19 SaveChanges()" style="text;html=1;align=center;verticalAlign=middle;resizable=0;points=[];autosize=1;strokeColor=none;fillColor=none;" parent="1" vertex="1">
          <mxGeometry x="719.32" y="2000.5" width="130" height="30" as="geometry" />
        </mxCell>
        <mxCell id="HW-5u9f7S994316d8FzE-335" value="" style="rounded=0;whiteSpace=wrap;html=1;" parent="1" vertex="1">
          <mxGeometry x="855.32" y="2015" width="15" height="19" as="geometry" />
        </mxCell>
        <mxCell id="HW-5u9f7S994316d8FzE-336" value="" style="endArrow=classic;html=1;rounded=0;" parent="1" edge="1">
          <mxGeometry width="50" height="50" relative="1" as="geometry">
            <mxPoint x="726.95" y="2024" as="sourcePoint" />
            <mxPoint x="845.7" y="2024" as="targetPoint" />
          </mxGeometry>
        </mxCell>
        <mxCell id="HW-5u9f7S994316d8FzE-337" value="" style="endArrow=classic;html=1;rounded=0;" parent="1" edge="1">
          <mxGeometry width="50" height="50" relative="1" as="geometry">
            <mxPoint x="878.32" y="2024" as="sourcePoint" />
            <mxPoint x="984.32" y="2024.1799999999998" as="targetPoint" />
          </mxGeometry>
        </mxCell>
        <mxCell id="HW-5u9f7S994316d8FzE-338" value="6.20 SaveChanges()" style="text;html=1;align=center;verticalAlign=middle;resizable=0;points=[];autosize=1;strokeColor=none;fillColor=none;" parent="1" vertex="1">
          <mxGeometry x="866.32" y="1993" width="130" height="30" as="geometry" />
        </mxCell>
        <mxCell id="HW-5u9f7S994316d8FzE-339" value="" style="rounded=0;whiteSpace=wrap;html=1;" parent="1" vertex="1">
          <mxGeometry x="988.44" y="2015" width="15" height="19" as="geometry" />
        </mxCell>
        <mxCell id="HW-5u9f7S994316d8FzE-340" value="" style="edgeStyle=orthogonalEdgeStyle;rounded=0;orthogonalLoop=1;jettySize=auto;html=1;dashed=1;endArrow=none;endFill=0;" parent="1" source="HW-5u9f7S994316d8FzE-323" target="HW-5u9f7S994316d8FzE-341" edge="1">
          <mxGeometry relative="1" as="geometry">
            <mxPoint x="860" y="2279" as="targetPoint" />
            <mxPoint x="861" y="1954" as="sourcePoint" />
          </mxGeometry>
        </mxCell>
        <mxCell id="HW-5u9f7S994316d8FzE-341" value="" style="rounded=0;whiteSpace=wrap;html=1;" parent="1" vertex="1">
          <mxGeometry x="855.3199999999999" y="1993" width="15" height="19" as="geometry" />
        </mxCell>
        <mxCell id="HW-5u9f7S994316d8FzE-312" value="6.11: make entity instance" style="text;html=1;align=center;verticalAlign=middle;resizable=0;points=[];autosize=1;strokeColor=none;fillColor=none;labelBackgroundColor=default;" parent="1" vertex="1">
          <mxGeometry x="856.69" y="1809" width="160" height="30" as="geometry" />
        </mxCell>
        <mxCell id="HW-5u9f7S994316d8FzE-372" value="" style="endArrow=classic;html=1;rounded=0;" parent="1" edge="1">
          <mxGeometry width="50" height="50" relative="1" as="geometry">
            <mxPoint x="490" y="568" as="sourcePoint" />
            <mxPoint x="570" y="568" as="targetPoint" />
          </mxGeometry>
        </mxCell>
        <mxCell id="HW-5u9f7S994316d8FzE-373" value="" style="rounded=0;whiteSpace=wrap;html=1;" parent="1" vertex="1">
          <mxGeometry x="573.75" y="558" width="15" height="100" as="geometry" />
        </mxCell>
        <mxCell id="HW-5u9f7S994316d8FzE-374" value="2.11: GetFollowings()" style="text;html=1;align=center;verticalAlign=middle;resizable=0;points=[];autosize=1;strokeColor=none;fillColor=none;" parent="1" vertex="1">
          <mxGeometry x="573.75" y="538" width="140" height="30" as="geometry" />
        </mxCell>
        <mxCell id="HW-5u9f7S994316d8FzE-375" value="" style="endArrow=classic;html=1;rounded=0;" parent="1" edge="1">
          <mxGeometry width="50" height="50" relative="1" as="geometry">
            <mxPoint x="598.75" y="568" as="sourcePoint" />
            <mxPoint x="691" y="568" as="targetPoint" />
          </mxGeometry>
        </mxCell>
        <mxCell id="HW-5u9f7S994316d8FzE-376" value="" style="rounded=0;whiteSpace=wrap;html=1;" parent="1" vertex="1">
          <mxGeometry x="704" y="563" width="15" height="95" as="geometry" />
        </mxCell>
        <mxCell id="HW-5u9f7S994316d8FzE-377" value="" style="endArrow=classic;html=1;rounded=0;" parent="1" edge="1">
          <mxGeometry width="50" height="50" relative="1" as="geometry">
            <mxPoint x="732.37" y="568" as="sourcePoint" />
            <mxPoint x="837.62" y="568" as="targetPoint" />
          </mxGeometry>
        </mxCell>
        <mxCell id="HW-5u9f7S994316d8FzE-378" value="2.12: request : author" style="text;html=1;align=center;verticalAlign=middle;resizable=0;points=[];autosize=1;strokeColor=none;fillColor=none;" parent="1" vertex="1">
          <mxGeometry x="715" y="538" width="140" height="30" as="geometry" />
        </mxCell>
        <mxCell id="HW-5u9f7S994316d8FzE-379" value="" style="rounded=0;whiteSpace=wrap;html=1;" parent="1" vertex="1">
          <mxGeometry x="852.37" y="563" width="15" height="95" as="geometry" />
        </mxCell>
        <mxCell id="HW-5u9f7S994316d8FzE-380" value="" style="endArrow=classic;html=1;rounded=0;" parent="1" edge="1">
          <mxGeometry width="50" height="50" relative="1" as="geometry">
            <mxPoint x="883.87" y="568" as="sourcePoint" />
            <mxPoint x="976.12" y="568" as="targetPoint" />
          </mxGeometry>
        </mxCell>
        <mxCell id="HW-5u9f7S994316d8FzE-381" value="" style="rounded=0;whiteSpace=wrap;html=1;" parent="1" vertex="1">
          <mxGeometry x="987.37" y="558" width="15" height="50" as="geometry" />
        </mxCell>
        <mxCell id="HW-5u9f7S994316d8FzE-382" value="2.13: request : JSON" style="text;html=1;align=center;verticalAlign=middle;resizable=0;points=[];autosize=1;strokeColor=none;fillColor=none;" parent="1" vertex="1">
          <mxGeometry x="860" y="538" width="140" height="30" as="geometry" />
        </mxCell>
        <mxCell id="HW-5u9f7S994316d8FzE-383" value="" style="endArrow=classic;html=1;rounded=0;" parent="1" edge="1">
          <mxGeometry width="50" height="50" relative="1" as="geometry">
            <mxPoint x="972.49" y="594.25" as="sourcePoint" />
            <mxPoint x="880.24" y="594.25" as="targetPoint" />
          </mxGeometry>
        </mxCell>
        <mxCell id="HW-5u9f7S994316d8FzE-384" value="2.14: respone: JSON" style="text;html=1;align=center;verticalAlign=middle;resizable=0;points=[];autosize=1;strokeColor=none;fillColor=none;" parent="1" vertex="1">
          <mxGeometry x="862.37" y="568" width="140" height="30" as="geometry" />
        </mxCell>
        <mxCell id="HW-5u9f7S994316d8FzE-385" value="" style="endArrow=classic;html=1;rounded=0;" parent="1" edge="1">
          <mxGeometry width="50" height="50" relative="1" as="geometry">
            <mxPoint x="840" y="648" as="sourcePoint" />
            <mxPoint x="730" y="648.41" as="targetPoint" />
          </mxGeometry>
        </mxCell>
        <mxCell id="HW-5u9f7S994316d8FzE-386" value="2.16: response : author" style="text;html=1;align=center;verticalAlign=middle;resizable=0;points=[];autosize=1;strokeColor=none;fillColor=none;" parent="1" vertex="1">
          <mxGeometry x="711" y="622.25" width="150" height="30" as="geometry" />
        </mxCell>
        <mxCell id="HW-5u9f7S994316d8FzE-387" value="" style="html=1;align=left;spacingLeft=2;endArrow=block;rounded=0;edgeStyle=orthogonalEdgeStyle;curved=0;rounded=0;" parent="1" edge="1">
          <mxGeometry relative="1" as="geometry">
            <mxPoint x="869" y="617.5" as="sourcePoint" />
            <Array as="points">
              <mxPoint x="899" y="647.5" />
            </Array>
            <mxPoint x="874" y="647.5" as="targetPoint" />
          </mxGeometry>
        </mxCell>
        <mxCell id="HW-5u9f7S994316d8FzE-388" value="2.15: make entity instance" style="text;html=1;align=center;verticalAlign=middle;resizable=0;points=[];autosize=1;strokeColor=none;fillColor=none;labelBackgroundColor=default;" parent="1" vertex="1">
          <mxGeometry x="856.37" y="616.5" width="160" height="30" as="geometry" />
        </mxCell>
        <mxCell id="HW-5u9f7S994316d8FzE-389" value="" style="endArrow=classic;html=1;rounded=0;" parent="1" edge="1">
          <mxGeometry width="50" height="50" relative="1" as="geometry">
            <mxPoint x="691" y="651.25" as="sourcePoint" />
            <mxPoint x="598.75" y="651.25" as="targetPoint" />
          </mxGeometry>
        </mxCell>
        <mxCell id="HW-5u9f7S994316d8FzE-390" value="" style="endArrow=classic;html=1;rounded=0;" parent="1" edge="1">
          <mxGeometry width="50" height="50" relative="1" as="geometry">
            <mxPoint x="568.5600000000001" y="655" as="sourcePoint" />
            <mxPoint x="485.44" y="655" as="targetPoint" />
          </mxGeometry>
        </mxCell>
        <mxCell id="HW-5u9f7S994316d8FzE-391" value="2.17: response : &lt;br&gt;followings" style="text;html=1;align=center;verticalAlign=middle;resizable=0;points=[];autosize=1;strokeColor=none;fillColor=none;" parent="1" vertex="1">
          <mxGeometry x="592.75" y="616.5" width="110" height="40" as="geometry" />
        </mxCell>
        <mxCell id="HW-5u9f7S994316d8FzE-392" value="2.18: response : &lt;br&gt;followings" style="text;html=1;align=center;verticalAlign=middle;resizable=0;points=[];autosize=1;strokeColor=none;fillColor=none;" parent="1" vertex="1">
          <mxGeometry x="473" y="615" width="110" height="40" as="geometry" />
        </mxCell>
        <mxCell id="HW-5u9f7S994316d8FzE-394" value="&lt;span style=&quot;color: rgb(0, 0, 0); font-family: Helvetica; font-size: 12px; font-style: normal; font-variant-ligatures: normal; font-variant-caps: normal; font-weight: 400; letter-spacing: normal; orphans: 2; text-align: center; text-indent: 0px; text-transform: none; widows: 2; word-spacing: 0px; -webkit-text-stroke-width: 0px; background-color: rgb(251, 251, 251); text-decoration-thickness: initial; text-decoration-style: initial; text-decoration-color: initial; float: none; display: inline !important;&quot;&gt;2.10: GetFollowings()&lt;/span&gt;" style="text;whiteSpace=wrap;html=1;" parent="1" vertex="1">
          <mxGeometry x="454.69" y="544" width="130" height="40" as="geometry" />
        </mxCell>
        <mxCell id="HW-5u9f7S994316d8FzE-150" value="2.6: make entity instance" style="text;html=1;align=center;verticalAlign=middle;resizable=0;points=[];autosize=1;strokeColor=none;fillColor=none;labelBackgroundColor=default;" parent="1" vertex="1">
          <mxGeometry x="856.37" y="494.5" width="160" height="30" as="geometry" />
        </mxCell>
        <mxCell id="HW-5u9f7S994316d8FzE-395" value="" style="endArrow=classic;html=1;rounded=0;" parent="1" edge="1">
          <mxGeometry width="50" height="50" relative="1" as="geometry">
            <mxPoint x="270.19" y="86" as="sourcePoint" />
            <mxPoint x="460.19" y="86" as="targetPoint" />
            <Array as="points" />
          </mxGeometry>
        </mxCell>
        <mxCell id="HW-5u9f7S994316d8FzE-396" value="1: upon client start" style="text;html=1;align=center;verticalAlign=middle;resizable=0;points=[];autosize=1;strokeColor=none;fillColor=none;" parent="1" vertex="1">
          <mxGeometry x="307" y="60" width="120" height="30" as="geometry" />
        </mxCell>
        <mxCell id="HW-5u9f7S994316d8FzE-397" value="" style="rounded=0;whiteSpace=wrap;html=1;" parent="1" vertex="1">
          <mxGeometry x="465" y="80" width="15" height="270" as="geometry" />
        </mxCell>
        <mxCell id="HW-5u9f7S994316d8FzE-399" value="" style="endArrow=classic;html=1;rounded=0;" parent="1" edge="1">
          <mxGeometry width="50" height="50" relative="1" as="geometry">
            <mxPoint x="488" y="90" as="sourcePoint" />
            <mxPoint x="568" y="90" as="targetPoint" />
          </mxGeometry>
        </mxCell>
        <mxCell id="HW-5u9f7S994316d8FzE-401" value="" style="edgeStyle=orthogonalEdgeStyle;rounded=0;orthogonalLoop=1;jettySize=auto;html=1;entryX=0.5;entryY=0;entryDx=0;entryDy=0;dashed=1;endArrow=none;endFill=0;" parent="1" source="HW-5u9f7S994316d8FzE-29" target="HW-5u9f7S994316d8FzE-400" edge="1">
          <mxGeometry relative="1" as="geometry">
            <mxPoint x="581" y="40" as="sourcePoint" />
            <mxPoint x="581" y="436" as="targetPoint" />
          </mxGeometry>
        </mxCell>
        <mxCell id="HW-5u9f7S994316d8FzE-400" value="" style="rounded=0;whiteSpace=wrap;html=1;" parent="1" vertex="1">
          <mxGeometry x="573.75" y="89" width="15" height="251" as="geometry" />
        </mxCell>
        <mxCell id="HW-5u9f7S994316d8FzE-404" value="" style="edgeStyle=orthogonalEdgeStyle;rounded=0;orthogonalLoop=1;jettySize=auto;html=1;entryX=0.5;entryY=0;entryDx=0;entryDy=0;dashed=1;endArrow=none;endFill=0;" parent="1" source="HW-5u9f7S994316d8FzE-42" target="HW-5u9f7S994316d8FzE-403" edge="1">
          <mxGeometry relative="1" as="geometry">
            <mxPoint x="711" y="40" as="sourcePoint" />
            <mxPoint x="712" y="441" as="targetPoint" />
          </mxGeometry>
        </mxCell>
        <mxCell id="HW-5u9f7S994316d8FzE-403" value="" style="rounded=0;whiteSpace=wrap;html=1;" parent="1" vertex="1">
          <mxGeometry x="704.32" y="89" width="15" height="251" as="geometry" />
        </mxCell>
        <mxCell id="HW-5u9f7S994316d8FzE-405" value="" style="endArrow=classic;html=1;rounded=0;" parent="1" edge="1">
          <mxGeometry width="50" height="50" relative="1" as="geometry">
            <mxPoint x="601.63" y="90" as="sourcePoint" />
            <mxPoint x="693.88" y="90" as="targetPoint" />
          </mxGeometry>
        </mxCell>
        <mxCell id="HW-5u9f7S994316d8FzE-407" value="1.3: request : author" style="text;whiteSpace=wrap;html=1;" parent="1" vertex="1">
          <mxGeometry x="733" y="70" width="150" height="40" as="geometry" />
        </mxCell>
        <mxCell id="HW-5u9f7S994316d8FzE-408" value="" style="endArrow=classic;html=1;rounded=0;" parent="1" edge="1">
          <mxGeometry width="50" height="50" relative="1" as="geometry">
            <mxPoint x="737.75" y="100" as="sourcePoint" />
            <mxPoint x="843" y="100" as="targetPoint" />
          </mxGeometry>
        </mxCell>
        <mxCell id="HW-5u9f7S994316d8FzE-410" value="" style="edgeStyle=orthogonalEdgeStyle;rounded=0;orthogonalLoop=1;jettySize=auto;html=1;entryX=0.5;entryY=0;entryDx=0;entryDy=0;dashed=1;endArrow=none;endFill=0;" parent="1" source="HW-5u9f7S994316d8FzE-107" target="HW-5u9f7S994316d8FzE-409" edge="1">
          <mxGeometry relative="1" as="geometry">
            <mxPoint x="860" y="41" as="sourcePoint" />
            <mxPoint x="860" y="441" as="targetPoint" />
          </mxGeometry>
        </mxCell>
        <mxCell id="HW-5u9f7S994316d8FzE-409" value="" style="rounded=0;whiteSpace=wrap;html=1;" parent="1" vertex="1">
          <mxGeometry x="854" y="98" width="15" height="82" as="geometry" />
        </mxCell>
        <mxCell id="HW-5u9f7S994316d8FzE-411" value="" style="endArrow=classic;html=1;rounded=0;" parent="1" edge="1">
          <mxGeometry width="50" height="50" relative="1" as="geometry">
            <mxPoint x="884.94" y="100.5" as="sourcePoint" />
            <mxPoint x="977.19" y="100.5" as="targetPoint" />
          </mxGeometry>
        </mxCell>
        <mxCell id="HW-5u9f7S994316d8FzE-412" value="" style="rounded=0;whiteSpace=wrap;html=1;" parent="1" vertex="1">
          <mxGeometry x="988.44" y="90.5" width="15" height="50" as="geometry" />
        </mxCell>
        <mxCell id="HW-5u9f7S994316d8FzE-413" value="1.4: request : JSON" style="text;html=1;align=center;verticalAlign=middle;resizable=0;points=[];autosize=1;strokeColor=none;fillColor=none;" parent="1" vertex="1">
          <mxGeometry x="866.07" y="70.5" width="130" height="30" as="geometry" />
        </mxCell>
        <mxCell id="HW-5u9f7S994316d8FzE-414" value="" style="endArrow=classic;html=1;rounded=0;" parent="1" edge="1">
          <mxGeometry width="50" height="50" relative="1" as="geometry">
            <mxPoint x="973.5600000000001" y="126.75" as="sourcePoint" />
            <mxPoint x="881.3100000000001" y="126.75" as="targetPoint" />
          </mxGeometry>
        </mxCell>
        <mxCell id="HW-5u9f7S994316d8FzE-415" value="1.5: respone: JSON" style="text;html=1;align=center;verticalAlign=middle;resizable=0;points=[];autosize=1;strokeColor=none;fillColor=none;" parent="1" vertex="1">
          <mxGeometry x="868.44" y="100.5" width="130" height="30" as="geometry" />
        </mxCell>
        <mxCell id="HW-5u9f7S994316d8FzE-416" value="" style="html=1;align=left;spacingLeft=2;endArrow=block;rounded=0;edgeStyle=orthogonalEdgeStyle;curved=0;rounded=0;" parent="1" edge="1">
          <mxGeometry relative="1" as="geometry">
            <mxPoint x="870.32" y="140.5" as="sourcePoint" />
            <Array as="points">
              <mxPoint x="900.32" y="170.5" />
            </Array>
            <mxPoint x="875.32" y="170.5" as="targetPoint" />
          </mxGeometry>
        </mxCell>
        <mxCell id="HW-5u9f7S994316d8FzE-417" value="&lt;span style=&quot;color: rgb(0, 0, 0); font-family: Helvetica; font-size: 12px; font-style: normal; font-variant-ligatures: normal; font-variant-caps: normal; font-weight: 400; letter-spacing: normal; orphans: 2; text-align: center; text-indent: 0px; text-transform: none; widows: 2; word-spacing: 0px; -webkit-text-stroke-width: 0px; background-color: rgb(255, 255, 255); text-decoration-thickness: initial; text-decoration-style: initial; text-decoration-color: initial; float: none; display: inline !important;&quot;&gt;1.6: make entity instance&lt;/span&gt;" style="text;whiteSpace=wrap;html=1;" parent="1" vertex="1">
          <mxGeometry x="870.8199999999999" y="140.5" width="170" height="40" as="geometry" />
        </mxCell>
        <mxCell id="HW-5u9f7S994316d8FzE-418" value="" style="endArrow=classic;html=1;rounded=0;" parent="1" edge="1">
          <mxGeometry width="50" height="50" relative="1" as="geometry">
            <mxPoint x="840" y="173" as="sourcePoint" />
            <mxPoint x="734.75" y="173" as="targetPoint" />
          </mxGeometry>
        </mxCell>
        <mxCell id="HW-5u9f7S994316d8FzE-419" value="&lt;span style=&quot;color: rgb(0, 0, 0); font-family: Helvetica; font-size: 12px; font-style: normal; font-variant-ligatures: normal; font-variant-caps: normal; font-weight: 400; letter-spacing: normal; orphans: 2; text-align: center; text-indent: 0px; text-transform: none; widows: 2; word-spacing: 0px; -webkit-text-stroke-width: 0px; background-color: rgb(251, 251, 251); text-decoration-thickness: initial; text-decoration-style: initial; text-decoration-color: initial; float: none; display: inline !important;&quot;&gt;1.7: response: author&lt;/span&gt;" style="text;whiteSpace=wrap;html=1;" parent="1" vertex="1">
          <mxGeometry x="728.44" y="143.75" width="140" height="40" as="geometry" />
        </mxCell>
        <mxCell id="HW-5u9f7S994316d8FzE-421" value="" style="html=1;align=left;spacingLeft=2;endArrow=block;rounded=0;edgeStyle=orthogonalEdgeStyle;curved=0;rounded=0;" parent="1" edge="1">
          <mxGeometry relative="1" as="geometry">
            <mxPoint x="720.32" y="183.75" as="sourcePoint" />
            <Array as="points">
              <mxPoint x="750.32" y="213.75" />
            </Array>
            <mxPoint x="725.32" y="213.75" as="targetPoint" />
          </mxGeometry>
        </mxCell>
        <mxCell id="HW-5u9f7S994316d8FzE-422" value="&lt;span style=&quot;color: rgb(0, 0, 0); font-family: Helvetica; font-size: 12px; font-style: normal; font-variant-ligatures: normal; font-variant-caps: normal; font-weight: 400; letter-spacing: normal; orphans: 2; text-align: center; text-indent: 0px; text-transform: none; widows: 2; word-spacing: 0px; -webkit-text-stroke-width: 0px; background-color: rgb(255, 255, 255); text-decoration-thickness: initial; text-decoration-style: initial; text-decoration-color: initial; float: none; display: inline !important;&quot;&gt;1.8: check if response is empty&lt;/span&gt;" style="text;whiteSpace=wrap;html=1;" parent="1" vertex="1">
          <mxGeometry x="720.82" y="185.75" width="170" height="40" as="geometry" />
        </mxCell>
        <mxCell id="HW-5u9f7S994316d8FzE-423" value="" style="html=1;align=left;spacingLeft=2;endArrow=block;rounded=0;edgeStyle=orthogonalEdgeStyle;curved=0;rounded=0;" parent="1" edge="1">
          <mxGeometry relative="1" as="geometry">
            <mxPoint x="722.32" y="221.75" as="sourcePoint" />
            <Array as="points">
              <mxPoint x="752.32" y="251.75" />
            </Array>
            <mxPoint x="727.32" y="251.75" as="targetPoint" />
          </mxGeometry>
        </mxCell>
        <mxCell id="HW-5u9f7S994316d8FzE-426" value="" style="html=1;align=left;spacingLeft=2;endArrow=block;rounded=0;edgeStyle=orthogonalEdgeStyle;curved=0;rounded=0;" parent="1" edge="1">
          <mxGeometry relative="1" as="geometry">
            <mxPoint x="722.32" y="256.75" as="sourcePoint" />
            <Array as="points">
              <mxPoint x="752.32" y="286.75" />
            </Array>
            <mxPoint x="727.32" y="286.75" as="targetPoint" />
          </mxGeometry>
        </mxCell>
        <mxCell id="HW-5u9f7S994316d8FzE-427" value="&lt;span style=&quot;color: rgb(0, 0, 0); font-family: Helvetica; font-size: 12px; font-style: normal; font-variant-ligatures: normal; font-variant-caps: normal; font-weight: 400; letter-spacing: normal; orphans: 2; text-align: center; text-indent: 0px; text-transform: none; widows: 2; word-spacing: 0px; -webkit-text-stroke-width: 0px; background-color: rgb(251, 251, 251); text-decoration-thickness: initial; text-decoration-style: initial; text-decoration-color: initial; float: none; display: inline !important;&quot;&gt;1.10: Validate Author&lt;/span&gt;" style="text;whiteSpace=wrap;html=1;" parent="1" vertex="1">
          <mxGeometry x="723.37" y="260" width="130" height="40" as="geometry" />
        </mxCell>
        <mxCell id="HW-5u9f7S994316d8FzE-429" value="" style="endArrow=classic;html=1;rounded=0;" parent="1" edge="1">
          <mxGeometry width="50" height="50" relative="1" as="geometry">
            <mxPoint x="730.37" y="317" as="sourcePoint" />
            <mxPoint x="835.62" y="317" as="targetPoint" />
          </mxGeometry>
        </mxCell>
        <mxCell id="HW-5u9f7S994316d8FzE-431" value="&lt;span style=&quot;color: rgb(0, 0, 0); font-family: Helvetica; font-size: 12px; font-style: normal; font-variant-ligatures: normal; font-variant-caps: normal; font-weight: 400; letter-spacing: normal; orphans: 2; text-align: center; text-indent: 0px; text-transform: none; widows: 2; word-spacing: 0px; -webkit-text-stroke-width: 0px; background-color: rgb(251, 251, 251); text-decoration-thickness: initial; text-decoration-style: initial; text-decoration-color: initial; float: none; display: inline !important;&quot;&gt;1.12: SaveChanges()&lt;/span&gt;" style="text;whiteSpace=wrap;html=1;" parent="1" vertex="1">
          <mxGeometry x="725.37" y="315" width="160" height="40" as="geometry" />
        </mxCell>
        <mxCell id="HW-5u9f7S994316d8FzE-432" value="" style="endArrow=classic;html=1;rounded=0;" parent="1" edge="1">
          <mxGeometry width="50" height="50" relative="1" as="geometry">
            <mxPoint x="730.37" y="340" as="sourcePoint" />
            <mxPoint x="835.62" y="340" as="targetPoint" />
          </mxGeometry>
        </mxCell>
        <mxCell id="HW-5u9f7S994316d8FzE-433" value="" style="rounded=0;whiteSpace=wrap;html=1;" parent="1" vertex="1">
          <mxGeometry x="854" y="335" width="15" height="20" as="geometry" />
        </mxCell>
        <mxCell id="HW-5u9f7S994316d8FzE-434" value="" style="edgeStyle=orthogonalEdgeStyle;rounded=0;orthogonalLoop=1;jettySize=auto;html=1;entryX=0.5;entryY=0;entryDx=0;entryDy=0;dashed=1;endArrow=none;endFill=0;" parent="1" source="HW-5u9f7S994316d8FzE-409" target="HW-5u9f7S994316d8FzE-433" edge="1">
          <mxGeometry relative="1" as="geometry">
            <mxPoint x="862" y="180" as="sourcePoint" />
            <mxPoint x="860" y="441" as="targetPoint" />
          </mxGeometry>
        </mxCell>
        <mxCell id="HW-5u9f7S994316d8FzE-430" value="" style="rounded=0;whiteSpace=wrap;html=1;" parent="1" vertex="1">
          <mxGeometry x="854.69" y="307" width="15" height="20" as="geometry" />
        </mxCell>
        <mxCell id="HW-5u9f7S994316d8FzE-435" value="" style="endArrow=classic;html=1;rounded=0;" parent="1" edge="1">
          <mxGeometry width="50" height="50" relative="1" as="geometry">
            <mxPoint x="878.45" y="344.5" as="sourcePoint" />
            <mxPoint x="983.7" y="344.5" as="targetPoint" />
          </mxGeometry>
        </mxCell>
        <mxCell id="HW-5u9f7S994316d8FzE-437" value="" style="edgeStyle=orthogonalEdgeStyle;rounded=0;orthogonalLoop=1;jettySize=auto;html=1;dashed=1;endArrow=none;endFill=0;" parent="1" source="HW-5u9f7S994316d8FzE-56" target="HW-5u9f7S994316d8FzE-436" edge="1">
          <mxGeometry relative="1" as="geometry">
            <mxPoint x="996" y="35" as="sourcePoint" />
            <mxPoint x="995" y="436" as="targetPoint" />
          </mxGeometry>
        </mxCell>
        <mxCell id="HW-5u9f7S994316d8FzE-436" value="" style="rounded=0;whiteSpace=wrap;html=1;" parent="1" vertex="1">
          <mxGeometry x="988.45" y="335" width="15" height="20" as="geometry" />
        </mxCell>
        <mxCell id="HW-5u9f7S994316d8FzE-438" value="&lt;span style=&quot;color: rgb(0, 0, 0); font-family: Helvetica; font-size: 12px; font-style: normal; font-variant-ligatures: normal; font-variant-caps: normal; font-weight: 400; letter-spacing: normal; orphans: 2; text-align: center; text-indent: 0px; text-transform: none; widows: 2; word-spacing: 0px; -webkit-text-stroke-width: 0px; background-color: rgb(251, 251, 251); text-decoration-thickness: initial; text-decoration-style: initial; text-decoration-color: initial; float: none; display: inline !important;&quot;&gt;1.13: SaveChanges()&lt;/span&gt;" style="text;whiteSpace=wrap;html=1;" parent="1" vertex="1">
          <mxGeometry x="880" y="315" width="150" height="40" as="geometry" />
        </mxCell>
        <mxCell id="HW-5u9f7S994316d8FzE-439" value="" style="endArrow=classic;html=1;rounded=0;" parent="1" edge="1">
          <mxGeometry width="50" height="50" relative="1" as="geometry">
            <mxPoint x="693.88" y="334" as="sourcePoint" />
            <mxPoint x="601.63" y="334" as="targetPoint" />
          </mxGeometry>
        </mxCell>
        <mxCell id="HW-5u9f7S994316d8FzE-440" value="" style="endArrow=classic;html=1;rounded=0;" parent="1" edge="1">
          <mxGeometry width="50" height="50" relative="1" as="geometry">
            <mxPoint x="568" y="334" as="sourcePoint" />
            <mxPoint x="488" y="334" as="targetPoint" />
          </mxGeometry>
        </mxCell>
        <mxCell id="HW-5u9f7S994316d8FzE-441" value="" style="endArrow=classic;html=1;rounded=0;" parent="1" edge="1">
          <mxGeometry width="50" height="50" relative="1" as="geometry">
            <mxPoint x="460.19" y="344.5" as="sourcePoint" />
            <mxPoint x="270.19" y="344.5" as="targetPoint" />
            <Array as="points" />
          </mxGeometry>
        </mxCell>
        <mxCell id="HW-5u9f7S994316d8FzE-172" value="" style="rounded=0;whiteSpace=wrap;html=1;" parent="1" vertex="1">
          <mxGeometry x="852.37" y="1214" width="15" height="85" as="geometry" />
        </mxCell>
        <mxCell id="HW-5u9f7S994316d8FzE-251" value="" style="rounded=0;whiteSpace=wrap;html=1;" parent="1" vertex="1">
          <mxGeometry x="852.69" y="1311.19" width="15" height="87.81" as="geometry" />
        </mxCell>
        <mxCell id="HW-5u9f7S994316d8FzE-442" value="&lt;span style=&quot;color: rgb(0, 0, 0); font-family: Helvetica; font-size: 12px; font-style: normal; font-variant-ligatures: normal; font-variant-caps: normal; font-weight: 400; letter-spacing: normal; orphans: 2; text-align: center; text-indent: 0px; text-transform: none; widows: 2; word-spacing: 0px; -webkit-text-stroke-width: 0px; background-color: rgb(251, 251, 251); text-decoration-thickness: initial; text-decoration-style: initial; text-decoration-color: initial; float: none; display: inline !important;&quot;&gt;7.13: Add Follower&lt;/span&gt;" style="text;whiteSpace=wrap;html=1;" parent="1" vertex="1">
          <mxGeometry x="724.37" y="2300" width="160" height="40" as="geometry" />
        </mxCell>
        <mxCell id="HW-5u9f7S994316d8FzE-443" value="" style="rounded=0;whiteSpace=wrap;html=1;" parent="1" vertex="1">
          <mxGeometry x="464" y="2107" width="15" height="253" as="geometry" />
        </mxCell>
        <mxCell id="HW-5u9f7S994316d8FzE-444" value="7: POST follow" style="text;html=1;align=center;verticalAlign=middle;resizable=0;points=[];autosize=1;strokeColor=none;fillColor=none;" parent="1" vertex="1">
          <mxGeometry x="311" y="2077" width="100" height="30" as="geometry" />
        </mxCell>
        <mxCell id="HW-5u9f7S994316d8FzE-445" value="7.16: respone : Public.cshtml" style="text;html=1;align=center;verticalAlign=middle;resizable=0;points=[];autosize=1;strokeColor=none;fillColor=none;" parent="1" vertex="1">
          <mxGeometry x="275.75" y="2320" width="180" height="30" as="geometry" />
        </mxCell>
        <mxCell id="HW-5u9f7S994316d8FzE-446" value="" style="endArrow=classic;html=1;rounded=0;" parent="1" edge="1">
          <mxGeometry width="50" height="50" relative="1" as="geometry">
            <mxPoint x="270.5" y="2107" as="sourcePoint" />
            <mxPoint x="460.5" y="2107" as="targetPoint" />
            <Array as="points" />
          </mxGeometry>
        </mxCell>
        <mxCell id="HW-5u9f7S994316d8FzE-447" value="" style="endArrow=classic;html=1;rounded=0;" parent="1" edge="1">
          <mxGeometry width="50" height="50" relative="1" as="geometry">
            <mxPoint x="456" y="2360" as="sourcePoint" />
            <mxPoint x="266" y="2360" as="targetPoint" />
            <Array as="points" />
          </mxGeometry>
        </mxCell>
        <mxCell id="HW-5u9f7S994316d8FzE-448" value="" style="endArrow=classic;html=1;rounded=0;" parent="1" edge="1">
          <mxGeometry width="50" height="50" relative="1" as="geometry">
            <mxPoint x="489" y="2117" as="sourcePoint" />
            <mxPoint x="569" y="2117" as="targetPoint" />
          </mxGeometry>
        </mxCell>
        <mxCell id="HW-5u9f7S994316d8FzE-449" value="" style="rounded=0;whiteSpace=wrap;html=1;" parent="1" vertex="1">
          <mxGeometry x="572.75" y="2107" width="15" height="243" as="geometry" />
        </mxCell>
        <mxCell id="HW-5u9f7S994316d8FzE-450" value="7.1: Follow()" style="text;html=1;align=center;verticalAlign=middle;resizable=0;points=[];autosize=1;strokeColor=none;fillColor=none;" parent="1" vertex="1">
          <mxGeometry x="478" y="2077" width="90" height="30" as="geometry" />
        </mxCell>
        <mxCell id="HW-5u9f7S994316d8FzE-451" value="7.2: Follow()" style="text;html=1;align=center;verticalAlign=middle;resizable=0;points=[];autosize=1;strokeColor=none;fillColor=none;" parent="1" vertex="1">
          <mxGeometry x="597.75" y="2087" width="90" height="30" as="geometry" />
        </mxCell>
        <mxCell id="HW-5u9f7S994316d8FzE-452" value="" style="endArrow=classic;html=1;rounded=0;" parent="1" edge="1">
          <mxGeometry width="50" height="50" relative="1" as="geometry">
            <mxPoint x="597.75" y="2117" as="sourcePoint" />
            <mxPoint x="690" y="2117" as="targetPoint" />
          </mxGeometry>
        </mxCell>
        <mxCell id="HW-5u9f7S994316d8FzE-453" value="" style="rounded=0;whiteSpace=wrap;html=1;" parent="1" vertex="1">
          <mxGeometry x="703" y="2112" width="15" height="238" as="geometry" />
        </mxCell>
        <mxCell id="HW-5u9f7S994316d8FzE-454" value="" style="endArrow=classic;html=1;rounded=0;" parent="1" edge="1">
          <mxGeometry width="50" height="50" relative="1" as="geometry">
            <mxPoint x="731.37" y="2117" as="sourcePoint" />
            <mxPoint x="836.62" y="2117" as="targetPoint" />
          </mxGeometry>
        </mxCell>
        <mxCell id="HW-5u9f7S994316d8FzE-455" value="7.3: request : author" style="text;html=1;align=center;verticalAlign=middle;resizable=0;points=[];autosize=1;strokeColor=none;fillColor=none;" parent="1" vertex="1">
          <mxGeometry x="719" y="2087" width="130" height="30" as="geometry" />
        </mxCell>
        <mxCell id="HW-5u9f7S994316d8FzE-456" value="" style="rounded=0;whiteSpace=wrap;html=1;" parent="1" vertex="1">
          <mxGeometry x="851.37" y="2112" width="15" height="85" as="geometry" />
        </mxCell>
        <mxCell id="HW-5u9f7S994316d8FzE-457" value="" style="endArrow=classic;html=1;rounded=0;" parent="1" edge="1">
          <mxGeometry width="50" height="50" relative="1" as="geometry">
            <mxPoint x="882.87" y="2117" as="sourcePoint" />
            <mxPoint x="975.12" y="2117" as="targetPoint" />
          </mxGeometry>
        </mxCell>
        <mxCell id="HW-5u9f7S994316d8FzE-458" value="" style="rounded=0;whiteSpace=wrap;html=1;" parent="1" vertex="1">
          <mxGeometry x="986.37" y="2107" width="15" height="50" as="geometry" />
        </mxCell>
        <mxCell id="HW-5u9f7S994316d8FzE-459" value="7.4: request : JSON" style="text;html=1;align=center;verticalAlign=middle;resizable=0;points=[];autosize=1;strokeColor=none;fillColor=none;" parent="1" vertex="1">
          <mxGeometry x="864" y="2087" width="130" height="30" as="geometry" />
        </mxCell>
        <mxCell id="HW-5u9f7S994316d8FzE-460" value="" style="endArrow=classic;html=1;rounded=0;" parent="1" edge="1">
          <mxGeometry width="50" height="50" relative="1" as="geometry">
            <mxPoint x="966.82" y="2147" as="sourcePoint" />
            <mxPoint x="874.57" y="2147" as="targetPoint" />
          </mxGeometry>
        </mxCell>
        <mxCell id="HW-5u9f7S994316d8FzE-461" value="7.5: respone: JSON" style="text;html=1;align=center;verticalAlign=middle;resizable=0;points=[];autosize=1;strokeColor=none;fillColor=none;" parent="1" vertex="1">
          <mxGeometry x="866.37" y="2115" width="130" height="30" as="geometry" />
        </mxCell>
        <mxCell id="HW-5u9f7S994316d8FzE-462" value="" style="html=1;align=left;spacingLeft=2;endArrow=block;rounded=0;edgeStyle=orthogonalEdgeStyle;curved=0;rounded=0;" parent="1" edge="1">
          <mxGeometry relative="1" as="geometry">
            <mxPoint x="881.63" y="2157" as="sourcePoint" />
            <Array as="points">
              <mxPoint x="911.63" y="2187" />
            </Array>
            <mxPoint x="886.63" y="2187" as="targetPoint" />
          </mxGeometry>
        </mxCell>
        <mxCell id="HW-5u9f7S994316d8FzE-463" value="7.6: make entity instance" style="text;html=1;align=center;verticalAlign=middle;resizable=0;points=[];autosize=1;strokeColor=none;fillColor=none;labelBackgroundColor=default;" parent="1" vertex="1">
          <mxGeometry x="855.69" y="2157" width="160" height="30" as="geometry" />
        </mxCell>
        <mxCell id="HW-5u9f7S994316d8FzE-464" value="" style="endArrow=classic;html=1;rounded=0;" parent="1" edge="1">
          <mxGeometry width="50" height="50" relative="1" as="geometry">
            <mxPoint x="693.8800000000001" y="2349.5" as="sourcePoint" />
            <mxPoint x="601.6300000000001" y="2349.5" as="targetPoint" />
          </mxGeometry>
        </mxCell>
        <mxCell id="HW-5u9f7S994316d8FzE-465" value="" style="endArrow=classic;html=1;rounded=0;" parent="1" edge="1">
          <mxGeometry width="50" height="50" relative="1" as="geometry">
            <mxPoint x="568.0000000000001" y="2348.75" as="sourcePoint" />
            <mxPoint x="484.88" y="2348.75" as="targetPoint" />
          </mxGeometry>
        </mxCell>
        <mxCell id="HW-5u9f7S994316d8FzE-466" value="" style="endArrow=classic;html=1;rounded=0;" parent="1" edge="1">
          <mxGeometry width="50" height="50" relative="1" as="geometry">
            <mxPoint x="731.69" y="2217" as="sourcePoint" />
            <mxPoint x="836.94" y="2217" as="targetPoint" />
          </mxGeometry>
        </mxCell>
        <mxCell id="HW-5u9f7S994316d8FzE-467" value="7.8: request : author" style="text;html=1;align=center;verticalAlign=middle;resizable=0;points=[];autosize=1;strokeColor=none;fillColor=none;" parent="1" vertex="1">
          <mxGeometry x="719.32" y="2187" width="130" height="30" as="geometry" />
        </mxCell>
        <mxCell id="HW-5u9f7S994316d8FzE-468" value="" style="endArrow=classic;html=1;rounded=0;" parent="1" edge="1">
          <mxGeometry width="50" height="50" relative="1" as="geometry">
            <mxPoint x="883.19" y="2217" as="sourcePoint" />
            <mxPoint x="975.44" y="2217" as="targetPoint" />
          </mxGeometry>
        </mxCell>
        <mxCell id="HW-5u9f7S994316d8FzE-469" value="" style="rounded=0;whiteSpace=wrap;html=1;" parent="1" vertex="1">
          <mxGeometry x="986.69" y="2207" width="15" height="50" as="geometry" />
        </mxCell>
        <mxCell id="HW-5u9f7S994316d8FzE-470" value="7.9: request : JSON" style="text;html=1;align=center;verticalAlign=middle;resizable=0;points=[];autosize=1;strokeColor=none;fillColor=none;" parent="1" vertex="1">
          <mxGeometry x="864.32" y="2187" width="130" height="30" as="geometry" />
        </mxCell>
        <mxCell id="HW-5u9f7S994316d8FzE-471" value="" style="endArrow=classic;html=1;rounded=0;" parent="1" edge="1">
          <mxGeometry width="50" height="50" relative="1" as="geometry">
            <mxPoint x="967.1400000000001" y="2247" as="sourcePoint" />
            <mxPoint x="874.8900000000001" y="2247" as="targetPoint" />
          </mxGeometry>
        </mxCell>
        <mxCell id="HW-5u9f7S994316d8FzE-472" value="7.10: respone: JSON" style="text;html=1;align=center;verticalAlign=middle;resizable=0;points=[];autosize=1;strokeColor=none;fillColor=none;" parent="1" vertex="1">
          <mxGeometry x="861.69" y="2215" width="140" height="30" as="geometry" />
        </mxCell>
        <mxCell id="HW-5u9f7S994316d8FzE-473" value="" style="html=1;align=left;spacingLeft=2;endArrow=block;rounded=0;edgeStyle=orthogonalEdgeStyle;curved=0;rounded=0;" parent="1" edge="1">
          <mxGeometry relative="1" as="geometry">
            <mxPoint x="869" y="2257" as="sourcePoint" />
            <Array as="points">
              <mxPoint x="899" y="2287" />
            </Array>
            <mxPoint x="874" y="2287" as="targetPoint" />
          </mxGeometry>
        </mxCell>
        <mxCell id="HW-5u9f7S994316d8FzE-482" value="" style="rounded=0;whiteSpace=wrap;html=1;" parent="1" vertex="1">
          <mxGeometry x="851.69" y="2209.19" width="15" height="87.81" as="geometry" />
        </mxCell>
        <mxCell id="HW-5u9f7S994316d8FzE-485" value="" style="endArrow=classic;html=1;rounded=0;" parent="1" edge="1">
          <mxGeometry width="50" height="50" relative="1" as="geometry">
            <mxPoint x="837.63" y="2187" as="sourcePoint" />
            <mxPoint x="732.38" y="2187" as="targetPoint" />
          </mxGeometry>
        </mxCell>
        <mxCell id="HW-5u9f7S994316d8FzE-486" value="" style="endArrow=classic;html=1;rounded=0;" parent="1" edge="1">
          <mxGeometry width="50" height="50" relative="1" as="geometry">
            <mxPoint x="839.99" y="2287" as="sourcePoint" />
            <mxPoint x="734.74" y="2287" as="targetPoint" />
          </mxGeometry>
        </mxCell>
        <mxCell id="HW-5u9f7S994316d8FzE-488" value="&lt;span style=&quot;color: rgb(0, 0, 0); font-family: Helvetica; font-size: 12px; font-style: normal; font-variant-ligatures: normal; font-variant-caps: normal; font-weight: 400; letter-spacing: normal; orphans: 2; text-align: center; text-indent: 0px; text-transform: none; widows: 2; word-spacing: 0px; -webkit-text-stroke-width: 0px; background-color: rgb(251, 251, 251); text-decoration-thickness: initial; text-decoration-style: initial; text-decoration-color: initial; float: none; display: inline !important;&quot;&gt;7.7: response : author&lt;/span&gt;" style="text;whiteSpace=wrap;html=1;" parent="1" vertex="1">
          <mxGeometry x="724" y="2160" width="140" height="40" as="geometry" />
        </mxCell>
        <mxCell id="HW-5u9f7S994316d8FzE-489" value="&lt;span style=&quot;color: rgb(0, 0, 0); font-family: Helvetica; font-size: 12px; font-style: normal; font-variant-ligatures: normal; font-variant-caps: normal; font-weight: 400; letter-spacing: normal; orphans: 2; text-align: center; text-indent: 0px; text-transform: none; widows: 2; word-spacing: 0px; -webkit-text-stroke-width: 0px; background-color: rgb(251, 251, 251); text-decoration-thickness: initial; text-decoration-style: initial; text-decoration-color: initial; float: none; display: inline !important;&quot;&gt;7.12: response : author&lt;/span&gt;" style="text;whiteSpace=wrap;html=1;" parent="1" vertex="1">
          <mxGeometry x="724.37" y="2258.19" width="130" height="40" as="geometry" />
        </mxCell>
        <mxCell id="HW-5u9f7S994316d8FzE-491" value="" style="endArrow=classic;html=1;rounded=0;" parent="1" edge="1">
          <mxGeometry width="50" height="50" relative="1" as="geometry">
            <mxPoint x="724.94" y="2322.5" as="sourcePoint" />
            <mxPoint x="843.69" y="2322.5" as="targetPoint" />
            <Array as="points" />
          </mxGeometry>
        </mxCell>
        <mxCell id="HW-5u9f7S994316d8FzE-492" value="7.14: SaveChanges()" style="text;html=1;align=center;verticalAlign=middle;resizable=0;points=[];autosize=1;strokeColor=none;fillColor=none;" parent="1" vertex="1">
          <mxGeometry x="713.32" y="2319.5" width="140" height="30" as="geometry" />
        </mxCell>
        <mxCell id="HW-5u9f7S994316d8FzE-493" value="" style="rounded=0;whiteSpace=wrap;html=1;" parent="1" vertex="1">
          <mxGeometry x="854.32" y="2334" width="15" height="19" as="geometry" />
        </mxCell>
        <mxCell id="HW-5u9f7S994316d8FzE-494" value="" style="endArrow=classic;html=1;rounded=0;" parent="1" edge="1">
          <mxGeometry width="50" height="50" relative="1" as="geometry">
            <mxPoint x="725.95" y="2343" as="sourcePoint" />
            <mxPoint x="844.7" y="2343" as="targetPoint" />
          </mxGeometry>
        </mxCell>
        <mxCell id="HW-5u9f7S994316d8FzE-495" value="" style="endArrow=classic;html=1;rounded=0;" parent="1" edge="1">
          <mxGeometry width="50" height="50" relative="1" as="geometry">
            <mxPoint x="877.32" y="2343" as="sourcePoint" />
            <mxPoint x="983.32" y="2343.18" as="targetPoint" />
          </mxGeometry>
        </mxCell>
        <mxCell id="HW-5u9f7S994316d8FzE-496" value="7.15: SaveChanges()" style="text;html=1;align=center;verticalAlign=middle;resizable=0;points=[];autosize=1;strokeColor=none;fillColor=none;" parent="1" vertex="1">
          <mxGeometry x="860.32" y="2312" width="140" height="30" as="geometry" />
        </mxCell>
        <mxCell id="HW-5u9f7S994316d8FzE-497" value="" style="rounded=0;whiteSpace=wrap;html=1;" parent="1" vertex="1">
          <mxGeometry x="987.44" y="2334" width="15" height="19" as="geometry" />
        </mxCell>
        <mxCell id="HW-5u9f7S994316d8FzE-498" value="" style="edgeStyle=orthogonalEdgeStyle;rounded=0;orthogonalLoop=1;jettySize=auto;html=1;dashed=1;endArrow=none;endFill=0;" parent="1" target="HW-5u9f7S994316d8FzE-499" edge="1">
          <mxGeometry relative="1" as="geometry">
            <mxPoint x="859" y="2598" as="targetPoint" />
            <mxPoint x="860.5" y="2273.0000000000005" as="sourcePoint" />
          </mxGeometry>
        </mxCell>
        <mxCell id="HW-5u9f7S994316d8FzE-499" value="" style="rounded=0;whiteSpace=wrap;html=1;" parent="1" vertex="1">
          <mxGeometry x="854.3199999999999" y="2312" width="15" height="19" as="geometry" />
        </mxCell>
        <mxCell id="HW-5u9f7S994316d8FzE-500" value="7.11: make entity instance" style="text;html=1;align=center;verticalAlign=middle;resizable=0;points=[];autosize=1;strokeColor=none;fillColor=none;labelBackgroundColor=default;" parent="1" vertex="1">
          <mxGeometry x="855.69" y="2257" width="160" height="30" as="geometry" />
        </mxCell>
        <mxCell id="HW-5u9f7S994316d8FzE-502" value="&lt;span style=&quot;color: rgb(0, 0, 0); font-family: Helvetica; font-size: 12px; font-style: normal; font-variant-ligatures: normal; font-variant-caps: normal; font-weight: 400; letter-spacing: normal; orphans: 2; text-align: center; text-indent: 0px; text-transform: none; widows: 2; word-spacing: 0px; -webkit-text-stroke-width: 0px; background-color: rgb(251, 251, 251); text-decoration-thickness: initial; text-decoration-style: initial; text-decoration-color: initial; float: none; display: inline !important;&quot;&gt;8.13: Remove Follower&lt;/span&gt;" style="text;whiteSpace=wrap;html=1;" parent="1" vertex="1">
          <mxGeometry x="725.37" y="2613" width="160" height="40" as="geometry" />
        </mxCell>
        <mxCell id="HW-5u9f7S994316d8FzE-503" value="" style="rounded=0;whiteSpace=wrap;html=1;" parent="1" vertex="1">
          <mxGeometry x="466" y="2420" width="15" height="253" as="geometry" />
        </mxCell>
        <mxCell id="HW-5u9f7S994316d8FzE-504" value="8: DELETE follow" style="text;html=1;align=center;verticalAlign=middle;resizable=0;points=[];autosize=1;strokeColor=none;fillColor=none;" parent="1" vertex="1">
          <mxGeometry x="303" y="2390" width="120" height="30" as="geometry" />
        </mxCell>
        <mxCell id="HW-5u9f7S994316d8FzE-505" value="8.16: respone : Public.cshtml" style="text;html=1;align=center;verticalAlign=middle;resizable=0;points=[];autosize=1;strokeColor=none;fillColor=none;" parent="1" vertex="1">
          <mxGeometry x="277.75" y="2633" width="180" height="30" as="geometry" />
        </mxCell>
        <mxCell id="HW-5u9f7S994316d8FzE-506" value="" style="endArrow=classic;html=1;rounded=0;" parent="1" edge="1">
          <mxGeometry width="50" height="50" relative="1" as="geometry">
            <mxPoint x="272.5" y="2420" as="sourcePoint" />
            <mxPoint x="462.5" y="2420" as="targetPoint" />
            <Array as="points" />
          </mxGeometry>
        </mxCell>
        <mxCell id="HW-5u9f7S994316d8FzE-507" value="" style="endArrow=classic;html=1;rounded=0;" parent="1" edge="1">
          <mxGeometry width="50" height="50" relative="1" as="geometry">
            <mxPoint x="458" y="2673" as="sourcePoint" />
            <mxPoint x="268" y="2673" as="targetPoint" />
            <Array as="points" />
          </mxGeometry>
        </mxCell>
        <mxCell id="HW-5u9f7S994316d8FzE-508" value="" style="endArrow=classic;html=1;rounded=0;" parent="1" edge="1">
          <mxGeometry width="50" height="50" relative="1" as="geometry">
            <mxPoint x="491" y="2430" as="sourcePoint" />
            <mxPoint x="571" y="2430" as="targetPoint" />
          </mxGeometry>
        </mxCell>
        <mxCell id="HW-5u9f7S994316d8FzE-509" value="" style="rounded=0;whiteSpace=wrap;html=1;" parent="1" vertex="1">
          <mxGeometry x="574.75" y="2420" width="15" height="243" as="geometry" />
        </mxCell>
        <mxCell id="HW-5u9f7S994316d8FzE-510" value="8.1: UnFollow()" style="text;html=1;align=center;verticalAlign=middle;resizable=0;points=[];autosize=1;strokeColor=none;fillColor=none;" parent="1" vertex="1">
          <mxGeometry x="475" y="2390" width="100" height="30" as="geometry" />
        </mxCell>
        <mxCell id="HW-5u9f7S994316d8FzE-511" value="8.2: UnFollow()" style="text;html=1;align=center;verticalAlign=middle;resizable=0;points=[];autosize=1;strokeColor=none;fillColor=none;" parent="1" vertex="1">
          <mxGeometry x="594.75" y="2400" width="100" height="30" as="geometry" />
        </mxCell>
        <mxCell id="HW-5u9f7S994316d8FzE-512" value="" style="endArrow=classic;html=1;rounded=0;" parent="1" edge="1">
          <mxGeometry width="50" height="50" relative="1" as="geometry">
            <mxPoint x="599.75" y="2430" as="sourcePoint" />
            <mxPoint x="692" y="2430" as="targetPoint" />
          </mxGeometry>
        </mxCell>
        <mxCell id="HW-5u9f7S994316d8FzE-513" value="" style="rounded=0;whiteSpace=wrap;html=1;" parent="1" vertex="1">
          <mxGeometry x="705" y="2425" width="15" height="238" as="geometry" />
        </mxCell>
        <mxCell id="HW-5u9f7S994316d8FzE-514" value="" style="endArrow=classic;html=1;rounded=0;" parent="1" edge="1">
          <mxGeometry width="50" height="50" relative="1" as="geometry">
            <mxPoint x="733.37" y="2430" as="sourcePoint" />
            <mxPoint x="838.62" y="2430" as="targetPoint" />
          </mxGeometry>
        </mxCell>
        <mxCell id="HW-5u9f7S994316d8FzE-515" value="8.3: request : author" style="text;html=1;align=center;verticalAlign=middle;resizable=0;points=[];autosize=1;strokeColor=none;fillColor=none;" parent="1" vertex="1">
          <mxGeometry x="721" y="2400" width="130" height="30" as="geometry" />
        </mxCell>
        <mxCell id="HW-5u9f7S994316d8FzE-516" value="" style="rounded=0;whiteSpace=wrap;html=1;" parent="1" vertex="1">
          <mxGeometry x="853.37" y="2425" width="15" height="85" as="geometry" />
        </mxCell>
        <mxCell id="HW-5u9f7S994316d8FzE-517" value="" style="endArrow=classic;html=1;rounded=0;" parent="1" edge="1">
          <mxGeometry width="50" height="50" relative="1" as="geometry">
            <mxPoint x="884.87" y="2430" as="sourcePoint" />
            <mxPoint x="977.12" y="2430" as="targetPoint" />
          </mxGeometry>
        </mxCell>
        <mxCell id="HW-5u9f7S994316d8FzE-518" value="" style="rounded=0;whiteSpace=wrap;html=1;" parent="1" vertex="1">
          <mxGeometry x="988.37" y="2420" width="15" height="50" as="geometry" />
        </mxCell>
        <mxCell id="HW-5u9f7S994316d8FzE-519" value="8.4: request : JSON" style="text;html=1;align=center;verticalAlign=middle;resizable=0;points=[];autosize=1;strokeColor=none;fillColor=none;" parent="1" vertex="1">
          <mxGeometry x="866" y="2400" width="130" height="30" as="geometry" />
        </mxCell>
        <mxCell id="HW-5u9f7S994316d8FzE-520" value="" style="endArrow=classic;html=1;rounded=0;" parent="1" edge="1">
          <mxGeometry width="50" height="50" relative="1" as="geometry">
            <mxPoint x="968.82" y="2460" as="sourcePoint" />
            <mxPoint x="876.57" y="2460" as="targetPoint" />
          </mxGeometry>
        </mxCell>
        <mxCell id="HW-5u9f7S994316d8FzE-521" value="8.5: respone: JSON" style="text;html=1;align=center;verticalAlign=middle;resizable=0;points=[];autosize=1;strokeColor=none;fillColor=none;" parent="1" vertex="1">
          <mxGeometry x="868.37" y="2428" width="130" height="30" as="geometry" />
        </mxCell>
        <mxCell id="HW-5u9f7S994316d8FzE-522" value="" style="html=1;align=left;spacingLeft=2;endArrow=block;rounded=0;edgeStyle=orthogonalEdgeStyle;curved=0;rounded=0;" parent="1" edge="1">
          <mxGeometry relative="1" as="geometry">
            <mxPoint x="883.63" y="2470" as="sourcePoint" />
            <Array as="points">
              <mxPoint x="913.63" y="2500" />
            </Array>
            <mxPoint x="888.63" y="2500" as="targetPoint" />
          </mxGeometry>
        </mxCell>
        <mxCell id="HW-5u9f7S994316d8FzE-523" value="8.6: make entity instance" style="text;html=1;align=center;verticalAlign=middle;resizable=0;points=[];autosize=1;strokeColor=none;fillColor=none;labelBackgroundColor=default;" parent="1" vertex="1">
          <mxGeometry x="857.69" y="2470" width="160" height="30" as="geometry" />
        </mxCell>
        <mxCell id="HW-5u9f7S994316d8FzE-524" value="" style="endArrow=classic;html=1;rounded=0;" parent="1" edge="1">
          <mxGeometry width="50" height="50" relative="1" as="geometry">
            <mxPoint x="695.8800000000001" y="2662.5" as="sourcePoint" />
            <mxPoint x="603.6300000000001" y="2662.5" as="targetPoint" />
          </mxGeometry>
        </mxCell>
        <mxCell id="HW-5u9f7S994316d8FzE-525" value="" style="endArrow=classic;html=1;rounded=0;" parent="1" edge="1">
          <mxGeometry width="50" height="50" relative="1" as="geometry">
            <mxPoint x="570.0000000000001" y="2661.75" as="sourcePoint" />
            <mxPoint x="486.88" y="2661.75" as="targetPoint" />
          </mxGeometry>
        </mxCell>
        <mxCell id="HW-5u9f7S994316d8FzE-526" value="" style="endArrow=classic;html=1;rounded=0;" parent="1" edge="1">
          <mxGeometry width="50" height="50" relative="1" as="geometry">
            <mxPoint x="733.69" y="2530" as="sourcePoint" />
            <mxPoint x="838.94" y="2530" as="targetPoint" />
          </mxGeometry>
        </mxCell>
        <mxCell id="HW-5u9f7S994316d8FzE-527" value="8.8: request : author" style="text;html=1;align=center;verticalAlign=middle;resizable=0;points=[];autosize=1;strokeColor=none;fillColor=none;" parent="1" vertex="1">
          <mxGeometry x="721.32" y="2500" width="130" height="30" as="geometry" />
        </mxCell>
        <mxCell id="HW-5u9f7S994316d8FzE-528" value="" style="endArrow=classic;html=1;rounded=0;" parent="1" edge="1">
          <mxGeometry width="50" height="50" relative="1" as="geometry">
            <mxPoint x="885.19" y="2530" as="sourcePoint" />
            <mxPoint x="977.44" y="2530" as="targetPoint" />
          </mxGeometry>
        </mxCell>
        <mxCell id="HW-5u9f7S994316d8FzE-529" value="" style="rounded=0;whiteSpace=wrap;html=1;" parent="1" vertex="1">
          <mxGeometry x="988.69" y="2520" width="15" height="50" as="geometry" />
        </mxCell>
        <mxCell id="HW-5u9f7S994316d8FzE-530" value="8.9: request : JSON" style="text;html=1;align=center;verticalAlign=middle;resizable=0;points=[];autosize=1;strokeColor=none;fillColor=none;" parent="1" vertex="1">
          <mxGeometry x="866.32" y="2500" width="130" height="30" as="geometry" />
        </mxCell>
        <mxCell id="HW-5u9f7S994316d8FzE-531" value="" style="endArrow=classic;html=1;rounded=0;" parent="1" edge="1">
          <mxGeometry width="50" height="50" relative="1" as="geometry">
            <mxPoint x="969.1400000000001" y="2560" as="sourcePoint" />
            <mxPoint x="876.8900000000001" y="2560" as="targetPoint" />
          </mxGeometry>
        </mxCell>
        <mxCell id="HW-5u9f7S994316d8FzE-532" value="8.10: respone: JSON" style="text;html=1;align=center;verticalAlign=middle;resizable=0;points=[];autosize=1;strokeColor=none;fillColor=none;" parent="1" vertex="1">
          <mxGeometry x="863.69" y="2528" width="140" height="30" as="geometry" />
        </mxCell>
        <mxCell id="HW-5u9f7S994316d8FzE-533" value="" style="html=1;align=left;spacingLeft=2;endArrow=block;rounded=0;edgeStyle=orthogonalEdgeStyle;curved=0;rounded=0;" parent="1" edge="1">
          <mxGeometry relative="1" as="geometry">
            <mxPoint x="871" y="2570" as="sourcePoint" />
            <Array as="points">
              <mxPoint x="901" y="2600" />
            </Array>
            <mxPoint x="876" y="2600" as="targetPoint" />
          </mxGeometry>
        </mxCell>
        <mxCell id="HW-5u9f7S994316d8FzE-534" value="" style="rounded=0;whiteSpace=wrap;html=1;" parent="1" vertex="1">
          <mxGeometry x="853.69" y="2522.19" width="15" height="87.81" as="geometry" />
        </mxCell>
        <mxCell id="HW-5u9f7S994316d8FzE-535" value="" style="endArrow=classic;html=1;rounded=0;" parent="1" edge="1">
          <mxGeometry width="50" height="50" relative="1" as="geometry">
            <mxPoint x="839.63" y="2500" as="sourcePoint" />
            <mxPoint x="734.38" y="2500" as="targetPoint" />
          </mxGeometry>
        </mxCell>
        <mxCell id="HW-5u9f7S994316d8FzE-536" value="" style="endArrow=classic;html=1;rounded=0;" parent="1" edge="1">
          <mxGeometry width="50" height="50" relative="1" as="geometry">
            <mxPoint x="841.99" y="2600" as="sourcePoint" />
            <mxPoint x="736.74" y="2600" as="targetPoint" />
          </mxGeometry>
        </mxCell>
        <mxCell id="HW-5u9f7S994316d8FzE-537" value="&lt;span style=&quot;color: rgb(0, 0, 0); font-family: Helvetica; font-size: 12px; font-style: normal; font-variant-ligatures: normal; font-variant-caps: normal; font-weight: 400; letter-spacing: normal; orphans: 2; text-align: center; text-indent: 0px; text-transform: none; widows: 2; word-spacing: 0px; -webkit-text-stroke-width: 0px; background-color: rgb(251, 251, 251); text-decoration-thickness: initial; text-decoration-style: initial; text-decoration-color: initial; float: none; display: inline !important;&quot;&gt;8.7: response : author&lt;/span&gt;" style="text;whiteSpace=wrap;html=1;" parent="1" vertex="1">
          <mxGeometry x="730" y="2473" width="136" height="37" as="geometry" />
        </mxCell>
        <mxCell id="HW-5u9f7S994316d8FzE-538" value="&lt;span style=&quot;color: rgb(0, 0, 0); font-family: Helvetica; font-size: 12px; font-style: normal; font-variant-ligatures: normal; font-variant-caps: normal; font-weight: 400; letter-spacing: normal; orphans: 2; text-align: center; text-indent: 0px; text-transform: none; widows: 2; word-spacing: 0px; -webkit-text-stroke-width: 0px; background-color: rgb(251, 251, 251); text-decoration-thickness: initial; text-decoration-style: initial; text-decoration-color: initial; float: none; display: inline !important;&quot;&gt;8.12: response : author&lt;/span&gt;" style="text;whiteSpace=wrap;html=1;" parent="1" vertex="1">
          <mxGeometry x="726.37" y="2571.19" width="130" height="40" as="geometry" />
        </mxCell>
        <mxCell id="HW-5u9f7S994316d8FzE-539" value="" style="endArrow=classic;html=1;rounded=0;" parent="1" edge="1">
          <mxGeometry width="50" height="50" relative="1" as="geometry">
            <mxPoint x="726.94" y="2635.5" as="sourcePoint" />
            <mxPoint x="845.69" y="2635.5" as="targetPoint" />
            <Array as="points" />
          </mxGeometry>
        </mxCell>
        <mxCell id="HW-5u9f7S994316d8FzE-540" value="8.14: SaveChanges()" style="text;html=1;align=center;verticalAlign=middle;resizable=0;points=[];autosize=1;strokeColor=none;fillColor=none;" parent="1" vertex="1">
          <mxGeometry x="715.32" y="2632.5" width="140" height="30" as="geometry" />
        </mxCell>
        <mxCell id="HW-5u9f7S994316d8FzE-541" value="" style="rounded=0;whiteSpace=wrap;html=1;" parent="1" vertex="1">
          <mxGeometry x="856.32" y="2647" width="15" height="19" as="geometry" />
        </mxCell>
        <mxCell id="HW-5u9f7S994316d8FzE-542" value="" style="endArrow=classic;html=1;rounded=0;" parent="1" edge="1">
          <mxGeometry width="50" height="50" relative="1" as="geometry">
            <mxPoint x="727.95" y="2656" as="sourcePoint" />
            <mxPoint x="846.7" y="2656" as="targetPoint" />
          </mxGeometry>
        </mxCell>
        <mxCell id="HW-5u9f7S994316d8FzE-543" value="" style="endArrow=classic;html=1;rounded=0;" parent="1" edge="1">
          <mxGeometry width="50" height="50" relative="1" as="geometry">
            <mxPoint x="879.32" y="2656" as="sourcePoint" />
            <mxPoint x="985.32" y="2656.18" as="targetPoint" />
          </mxGeometry>
        </mxCell>
        <mxCell id="HW-5u9f7S994316d8FzE-544" value="8.15: SaveChanges()" style="text;html=1;align=center;verticalAlign=middle;resizable=0;points=[];autosize=1;strokeColor=none;fillColor=none;" parent="1" vertex="1">
          <mxGeometry x="862.32" y="2625" width="140" height="30" as="geometry" />
        </mxCell>
        <mxCell id="HW-5u9f7S994316d8FzE-545" value="" style="rounded=0;whiteSpace=wrap;html=1;" parent="1" vertex="1">
          <mxGeometry x="989.44" y="2647" width="15" height="19" as="geometry" />
        </mxCell>
        <mxCell id="HW-5u9f7S994316d8FzE-546" value="" style="edgeStyle=orthogonalEdgeStyle;rounded=0;orthogonalLoop=1;jettySize=auto;html=1;dashed=1;endArrow=none;endFill=0;" parent="1" target="HW-5u9f7S994316d8FzE-547" edge="1">
          <mxGeometry relative="1" as="geometry">
            <mxPoint x="861" y="2911" as="targetPoint" />
            <mxPoint x="862.5" y="2586.0000000000005" as="sourcePoint" />
          </mxGeometry>
        </mxCell>
        <mxCell id="HW-5u9f7S994316d8FzE-547" value="" style="rounded=0;whiteSpace=wrap;html=1;" parent="1" vertex="1">
          <mxGeometry x="856.3199999999999" y="2625" width="15" height="19" as="geometry" />
        </mxCell>
        <mxCell id="HW-5u9f7S994316d8FzE-548" value="8.11: make entity instance" style="text;html=1;align=center;verticalAlign=middle;resizable=0;points=[];autosize=1;strokeColor=none;fillColor=none;labelBackgroundColor=default;" parent="1" vertex="1">
          <mxGeometry x="857.69" y="2570" width="160" height="30" as="geometry" />
        </mxCell>
        <mxCell id="HW-5u9f7S994316d8FzE-550" value="" style="rounded=0;whiteSpace=wrap;html=1;" parent="1" vertex="1">
          <mxGeometry x="465.9" y="2715" width="15" height="195" as="geometry" />
        </mxCell>
        <mxCell id="HW-5u9f7S994316d8FzE-551" value="9: DELETE account" style="text;html=1;align=center;verticalAlign=middle;resizable=0;points=[];autosize=1;strokeColor=none;fillColor=none;" parent="1" vertex="1">
          <mxGeometry x="297.9" y="2685" width="130" height="30" as="geometry" />
        </mxCell>
        <mxCell id="HW-5u9f7S994316d8FzE-552" value="9.12: respone :&amp;nbsp;&lt;br&gt;/MicrosoftIdentity/Account/SignOut" style="text;html=1;align=center;verticalAlign=middle;resizable=0;points=[];autosize=1;strokeColor=none;fillColor=none;" parent="1" vertex="1">
          <mxGeometry x="260" y="2866" width="210" height="40" as="geometry" />
        </mxCell>
        <mxCell id="HW-5u9f7S994316d8FzE-553" value="" style="endArrow=classic;html=1;rounded=0;" parent="1" edge="1">
          <mxGeometry width="50" height="50" relative="1" as="geometry">
            <mxPoint x="272.4" y="2715" as="sourcePoint" />
            <mxPoint x="462.4" y="2715" as="targetPoint" />
            <Array as="points" />
          </mxGeometry>
        </mxCell>
        <mxCell id="HW-5u9f7S994316d8FzE-554" value="" style="endArrow=classic;html=1;rounded=0;" parent="1" edge="1">
          <mxGeometry width="50" height="50" relative="1" as="geometry">
            <mxPoint x="455.75" y="2910" as="sourcePoint" />
            <mxPoint x="265.75" y="2910" as="targetPoint" />
            <Array as="points" />
          </mxGeometry>
        </mxCell>
        <mxCell id="HW-5u9f7S994316d8FzE-555" value="" style="endArrow=classic;html=1;rounded=0;" parent="1" edge="1">
          <mxGeometry width="50" height="50" relative="1" as="geometry">
            <mxPoint x="490.9" y="2725" as="sourcePoint" />
            <mxPoint x="570.9" y="2725" as="targetPoint" />
          </mxGeometry>
        </mxCell>
        <mxCell id="HW-5u9f7S994316d8FzE-556" value="" style="rounded=0;whiteSpace=wrap;html=1;" parent="1" vertex="1">
          <mxGeometry x="574.65" y="2715" width="15" height="195" as="geometry" />
        </mxCell>
        <mxCell id="HW-5u9f7S994316d8FzE-557" value="9.1: Anonymize()" style="text;html=1;align=center;verticalAlign=middle;resizable=0;points=[];autosize=1;strokeColor=none;fillColor=none;" parent="1" vertex="1">
          <mxGeometry x="469.9" y="2685" width="110" height="30" as="geometry" />
        </mxCell>
        <mxCell id="HW-5u9f7S994316d8FzE-558" value="9.2: Anonymize()" style="text;html=1;align=center;verticalAlign=middle;resizable=0;points=[];autosize=1;strokeColor=none;fillColor=none;" parent="1" vertex="1">
          <mxGeometry x="589.65" y="2695" width="110" height="30" as="geometry" />
        </mxCell>
        <mxCell id="HW-5u9f7S994316d8FzE-559" value="" style="endArrow=classic;html=1;rounded=0;" parent="1" edge="1">
          <mxGeometry width="50" height="50" relative="1" as="geometry">
            <mxPoint x="599.65" y="2725" as="sourcePoint" />
            <mxPoint x="691.9" y="2725" as="targetPoint" />
          </mxGeometry>
        </mxCell>
        <mxCell id="HW-5u9f7S994316d8FzE-560" value="" style="rounded=0;whiteSpace=wrap;html=1;" parent="1" vertex="1">
          <mxGeometry x="704.9" y="2720" width="15" height="180" as="geometry" />
        </mxCell>
        <mxCell id="HW-5u9f7S994316d8FzE-561" value="" style="endArrow=classic;html=1;rounded=0;" parent="1" edge="1">
          <mxGeometry width="50" height="50" relative="1" as="geometry">
            <mxPoint x="733.27" y="2725" as="sourcePoint" />
            <mxPoint x="838.52" y="2725" as="targetPoint" />
          </mxGeometry>
        </mxCell>
        <mxCell id="HW-5u9f7S994316d8FzE-563" value="" style="rounded=0;whiteSpace=wrap;html=1;" parent="1" vertex="1">
          <mxGeometry x="853.27" y="2720" width="15" height="85" as="geometry" />
        </mxCell>
        <mxCell id="HW-5u9f7S994316d8FzE-564" value="" style="endArrow=classic;html=1;rounded=0;" parent="1" edge="1">
          <mxGeometry width="50" height="50" relative="1" as="geometry">
            <mxPoint x="884.77" y="2725" as="sourcePoint" />
            <mxPoint x="977.02" y="2725" as="targetPoint" />
          </mxGeometry>
        </mxCell>
        <mxCell id="HW-5u9f7S994316d8FzE-565" value="" style="rounded=0;whiteSpace=wrap;html=1;" parent="1" vertex="1">
          <mxGeometry x="988.27" y="2715" width="15" height="50" as="geometry" />
        </mxCell>
        <mxCell id="HW-5u9f7S994316d8FzE-566" value="9.4: request : JSON" style="text;html=1;align=center;verticalAlign=middle;resizable=0;points=[];autosize=1;strokeColor=none;fillColor=none;" parent="1" vertex="1">
          <mxGeometry x="865.9" y="2695" width="130" height="30" as="geometry" />
        </mxCell>
        <mxCell id="HW-5u9f7S994316d8FzE-567" value="" style="endArrow=classic;html=1;rounded=0;" parent="1" edge="1">
          <mxGeometry width="50" height="50" relative="1" as="geometry">
            <mxPoint x="968.72" y="2755" as="sourcePoint" />
            <mxPoint x="876.47" y="2755" as="targetPoint" />
          </mxGeometry>
        </mxCell>
        <mxCell id="HW-5u9f7S994316d8FzE-568" value="9.5: respone: JSON" style="text;html=1;align=center;verticalAlign=middle;resizable=0;points=[];autosize=1;strokeColor=none;fillColor=none;" parent="1" vertex="1">
          <mxGeometry x="868.27" y="2723" width="130" height="30" as="geometry" />
        </mxCell>
        <mxCell id="HW-5u9f7S994316d8FzE-569" value="" style="html=1;align=left;spacingLeft=2;endArrow=block;rounded=0;edgeStyle=orthogonalEdgeStyle;curved=0;rounded=0;" parent="1" edge="1">
          <mxGeometry relative="1" as="geometry">
            <mxPoint x="883.53" y="2765" as="sourcePoint" />
            <Array as="points">
              <mxPoint x="913.53" y="2795" />
            </Array>
            <mxPoint x="888.53" y="2795" as="targetPoint" />
          </mxGeometry>
        </mxCell>
        <mxCell id="HW-5u9f7S994316d8FzE-571" value="" style="endArrow=classic;html=1;rounded=0;" parent="1" edge="1">
          <mxGeometry width="50" height="50" relative="1" as="geometry">
            <mxPoint x="693.8700000000001" y="2902.75" as="sourcePoint" />
            <mxPoint x="601.6200000000001" y="2902.75" as="targetPoint" />
          </mxGeometry>
        </mxCell>
        <mxCell id="HW-5u9f7S994316d8FzE-572" value="" style="endArrow=classic;html=1;rounded=0;" parent="1" edge="1">
          <mxGeometry width="50" height="50" relative="1" as="geometry">
            <mxPoint x="568.0000000000001" y="2910" as="sourcePoint" />
            <mxPoint x="484.88" y="2910" as="targetPoint" />
          </mxGeometry>
        </mxCell>
        <mxCell id="HW-5u9f7S994316d8FzE-582" value="" style="endArrow=classic;html=1;rounded=0;" parent="1" edge="1">
          <mxGeometry width="50" height="50" relative="1" as="geometry">
            <mxPoint x="839.53" y="2795" as="sourcePoint" />
            <mxPoint x="734.28" y="2795" as="targetPoint" />
          </mxGeometry>
        </mxCell>
        <mxCell id="HW-5u9f7S994316d8FzE-584" value="9.7: response : author" style="text;whiteSpace=wrap;html=1;" parent="1" vertex="1">
          <mxGeometry x="725.9" y="2768" width="140" height="40" as="geometry" />
        </mxCell>
        <mxCell id="HW-5u9f7S994316d8FzE-588" value="" style="rounded=0;whiteSpace=wrap;html=1;" parent="1" vertex="1">
          <mxGeometry x="855.22" y="2885" width="15" height="19" as="geometry" />
        </mxCell>
        <mxCell id="HW-5u9f7S994316d8FzE-589" value="" style="endArrow=classic;html=1;rounded=0;" parent="1" edge="1">
          <mxGeometry width="50" height="50" relative="1" as="geometry">
            <mxPoint x="726.85" y="2894" as="sourcePoint" />
            <mxPoint x="845.6" y="2894" as="targetPoint" />
          </mxGeometry>
        </mxCell>
        <mxCell id="HW-5u9f7S994316d8FzE-590" value="" style="endArrow=classic;html=1;rounded=0;" parent="1" edge="1">
          <mxGeometry width="50" height="50" relative="1" as="geometry">
            <mxPoint x="878.22" y="2894" as="sourcePoint" />
            <mxPoint x="984.22" y="2894.18" as="targetPoint" />
          </mxGeometry>
        </mxCell>
        <mxCell id="HW-5u9f7S994316d8FzE-591" value="9.11 SaveChanges()" style="text;html=1;align=center;verticalAlign=middle;resizable=0;points=[];autosize=1;strokeColor=none;fillColor=none;" parent="1" vertex="1">
          <mxGeometry x="866.22" y="2864" width="130" height="30" as="geometry" />
        </mxCell>
        <mxCell id="HW-5u9f7S994316d8FzE-592" value="" style="rounded=0;whiteSpace=wrap;html=1;" parent="1" vertex="1">
          <mxGeometry x="988.34" y="2885" width="15" height="19" as="geometry" />
        </mxCell>
        <mxCell id="HW-5u9f7S994316d8FzE-593" value="" style="edgeStyle=orthogonalEdgeStyle;rounded=0;orthogonalLoop=1;jettySize=auto;html=1;dashed=1;endArrow=none;endFill=0;" parent="1" edge="1">
          <mxGeometry relative="1" as="geometry">
            <mxPoint x="862.75" y="2883" as="targetPoint" />
            <mxPoint x="862.4" y="2861.0000000000005" as="sourcePoint" />
          </mxGeometry>
        </mxCell>
        <mxCell id="HW-5u9f7S994316d8FzE-600" value="" style="endArrow=classic;html=1;rounded=0;" parent="1" edge="1">
          <mxGeometry width="50" height="50" relative="1" as="geometry">
            <mxPoint x="738.75" y="2830" as="sourcePoint" />
            <mxPoint x="844" y="2830" as="targetPoint" />
          </mxGeometry>
        </mxCell>
        <mxCell id="HW-5u9f7S994316d8FzE-601" value="" style="endArrow=classic;html=1;rounded=0;" parent="1" edge="1">
          <mxGeometry width="50" height="50" relative="1" as="geometry">
            <mxPoint x="738.37" y="2860" as="sourcePoint" />
            <mxPoint x="843.62" y="2860" as="targetPoint" />
          </mxGeometry>
        </mxCell>
        <mxCell id="HW-5u9f7S994316d8FzE-603" value="" style="edgeStyle=orthogonalEdgeStyle;rounded=0;orthogonalLoop=1;jettySize=auto;html=1;dashed=1;endArrow=none;endFill=0;" parent="1" source="HW-5u9f7S994316d8FzE-277" target="HW-5u9f7S994316d8FzE-602" edge="1">
          <mxGeometry relative="1" as="geometry">
            <mxPoint x="863" y="2989" as="targetPoint" />
            <mxPoint x="863" y="1562" as="sourcePoint" />
          </mxGeometry>
        </mxCell>
        <mxCell id="HW-5u9f7S994316d8FzE-602" value="" style="rounded=0;whiteSpace=wrap;html=1;" parent="1" vertex="1">
          <mxGeometry x="854" y="2820" width="15" height="19" as="geometry" />
        </mxCell>
        <mxCell id="HW-5u9f7S994316d8FzE-605" value="" style="edgeStyle=orthogonalEdgeStyle;rounded=0;orthogonalLoop=1;jettySize=auto;html=1;dashed=1;endArrow=none;endFill=0;" parent="1" source="HW-5u9f7S994316d8FzE-602" target="HW-5u9f7S994316d8FzE-604" edge="1">
          <mxGeometry relative="1" as="geometry">
            <mxPoint x="863" y="2989" as="targetPoint" />
            <mxPoint x="862" y="2839" as="sourcePoint" />
          </mxGeometry>
        </mxCell>
        <mxCell id="HW-5u9f7S994316d8FzE-604" value="" style="rounded=0;whiteSpace=wrap;html=1;" parent="1" vertex="1">
          <mxGeometry x="854.69" y="2850" width="15" height="19" as="geometry" />
        </mxCell>
        <mxCell id="HW-5u9f7S994316d8FzE-606" value="&lt;span style=&quot;color: rgb(0, 0, 0); font-family: Helvetica; font-size: 12px; font-style: normal; font-variant-ligatures: normal; font-variant-caps: normal; font-weight: 400; letter-spacing: normal; orphans: 2; text-align: center; text-indent: 0px; text-transform: none; widows: 2; word-spacing: 0px; -webkit-text-stroke-width: 0px; background-color: rgb(251, 251, 251); text-decoration-thickness: initial; text-decoration-style: initial; text-decoration-color: initial; float: none; display: inline !important;&quot;&gt;9.8: anonymize name&lt;/span&gt;" style="text;whiteSpace=wrap;html=1;" parent="1" vertex="1">
          <mxGeometry x="728.37" y="2805" width="150" height="40" as="geometry" />
        </mxCell>
        <mxCell id="HW-5u9f7S994316d8FzE-607" value="&lt;span style=&quot;color: rgb(0, 0, 0); font-family: Helvetica; font-size: 12px; font-style: normal; font-variant-ligatures: normal; font-variant-caps: normal; font-weight: 400; letter-spacing: normal; orphans: 2; text-align: center; text-indent: 0px; text-transform: none; widows: 2; word-spacing: 0px; -webkit-text-stroke-width: 0px; background-color: rgb(251, 251, 251); text-decoration-thickness: initial; text-decoration-style: initial; text-decoration-color: initial; float: none; display: inline !important;&quot;&gt;9.9: anonymize email&lt;/span&gt;" style="text;whiteSpace=wrap;html=1;" parent="1" vertex="1">
          <mxGeometry x="727.37" y="2834" width="150" height="40" as="geometry" />
        </mxCell>
      </root>
    </mxGraphModel>
  </diagram>
</mxfile>
